<?xml version="1.0" encoding="utf-8"?>
<!-- Generator: Adobe Illustrator 19.1.0, SVG Export Plug-In . SVG Version: 6.00 Build 0)  -->
<svg version="1.1" xmlns="http://www.w3.org/2000/svg" xmlns:xlink="http://www.w3.org/1999/xlink" x="0px" y="0px"
	 viewBox="0 0 1700 1000" enable-background="new 0 0 1700 1000" xml:space="preserve">
<pattern  x="-1586.169" y="-2.5" width="490.25" height="490.25" patternUnits="userSpaceOnUse" id="Motivo_nuevo_3" viewBox="0 -490.25 490.25 490.25" overflow="visible">
	<g>
		<polygon fill="none" points="0,-490.25 490.25,-490.25 490.25,0 0,0 		"/>
		<path fill="#C69A71" d="M180.657-490.25c0.304,0.519,0.681,1.01,0.886,1.565c0.152,0.41,0.223,1.246,0.085,1.303
			c-0.673,0.279-1.429,0.475-2.151,0.46c-0.311-0.007-0.827-0.566-0.871-0.922c-0.098-0.786,0.046-1.602,0.091-2.405
			C179.35-490.25,180.004-490.25,180.657-490.25z"/>
		<path fill="#C69A71" d="M490.25-102.707c-0.335-0.131-0.813-0.167-0.974-0.412c-0.318-0.485-0.461-1.085-0.677-1.638
			c0.55-0.134,1.101-0.268,1.65-0.401C490.25-104.342,490.25-103.524,490.25-102.707z"/>
		<path fill="#C69A71" d="M0-105.403c0.848-0.12,1.334,0.227,1.283,1.103c-0.043,0.766-0.345,1.33-1.283,1.104
			C0-103.933,0-104.668,0-105.403z"/>
		<path fill="#C69A71" d="M122.806-163.377c0.861,0.5,1.727,0.993,2.577,1.511c0.118,0.072,0.214,0.268,0.224,0.413
			c0.068,0.964,0.178,1.932,0.141,2.893c-0.038,0.976-1.816,2.096-2.861,1.89c-1.742-0.342-2.335-1.189-2.084-2.917
			c0.036-0.25-0.088-0.527-0.154-0.788c-0.144-0.568-0.597-1.338-0.381-1.655c0.347-0.51,1.125-0.736,1.742-1.042
			c0.163-0.081,0.4-0.013,0.603-0.013C122.677-163.183,122.742-163.279,122.806-163.377z"/>
		<path fill="#C69A71" d="M167.349-262.934c-0.956-0.623-1.721-1.074-2.429-1.602c-0.348-0.258-0.54-0.73-0.893-0.979
			c-0.873-0.615-0.873-1.548-0.346-2.115c0.387-0.416,1.371-0.461,2.048-0.367c0.626,0.088,1.36,0.443,1.754,0.922
			c0.669,0.81,1.22,1.773,1.553,2.764C169.109-264.094,168.063-263.5,167.349-262.934z"/>
		<path fill="#C69A71" d="M410.513-22.612c1.121-0.018,2.189,0.022,2.251,1.564c0.007,0.172,0.281,0.372,0.474,0.492
			c0.997,0.623,1.104,1.115,0.436,2.149c-0.414,0.639-1.569,0.878-2.161,0.328c-0.915-0.851-1.772-1.773-2.577-2.729
			c-0.272-0.323-0.544-0.974-0.396-1.239c0.179-0.319,0.797-0.416,1.242-0.553C410.006-22.669,410.268-22.612,410.513-22.612z"/>
		<path fill="#C69A71" d="M27.67-87.161c0.292-0.686,0.409-1.738,0.914-1.979c1.074-0.514,1.621,0.482,2.099,1.323
			c0.135,0.239,0.392,0.407,0.583,0.616c0.494,0.542,0.549,1.066-0.07,1.563c-0.185,0.149-0.413,0.284-0.519,0.481
			c-0.264,0.488-0.196,1.402-1.123,1.037c-0.848-0.334-1.797-0.705-1.631-1.955c0.042-0.319,0.006-0.649,0.006-0.976
			C27.842-87.088,27.756-87.125,27.67-87.161z"/>
		<path fill="#C69A71" d="M104.574-192.588c1.414-0.172,2.057,0.931,2.737,1.685c0.734,0.816,0.03,2.153-1.077,2.211
			c-1.149,0.06-2.501,0.36-2.563-1.495c-0.002-0.075-0.042-0.171-0.098-0.219c-0.496-0.436-1.15-0.938-0.598-1.599
			C103.29-192.382,104.027-192.405,104.574-192.588z"/>
		<path fill="#C69A71" d="M423.967-244.215c1.028-0.854,2.244-0.602,2.81,0.684c0.504,1.146-0.786,1.342-1.208,1.991
			c-0.112,0.174-0.918,0.158-1.143-0.052c-0.697-0.651-1.293-1.421-1.867-2.189c-0.113-0.15,0.042-0.501,0.074-0.76
			C423.03-244.443,423.428-244.347,423.967-244.215z"/>
		<path fill="#C69A71" d="M276.11-331.125c-0.345,0.37-0.82,1.166-1.521,1.549c-0.677,0.369-0.959-0.373-0.998-0.968
			c-0.051-0.759,0.079-1.534-0.807-1.979c-0.155-0.078-0.224-0.662-0.099-0.875c0.15-0.259,0.535-0.486,0.845-0.525
			C274.495-334.043,276.075-332.563,276.11-331.125z"/>
		<path fill="#C69A71" d="M40.781-440.727c1.05,0.757,1.999,1.38,2.854,2.112c0.152,0.13-0.025,1.015-0.158,1.043
			c-0.597,0.128-1.258,0.185-1.848,0.052c-0.623-0.141-1.242-0.456-1.766-0.831c-0.33-0.235-0.759-0.923-0.662-1.057
			C39.54-439.871,40.088-440.181,40.781-440.727z"/>
		<path fill="#C69A71" d="M80.258-430.222c0.479,0.422,1.311,0.804,1.363,1.273c0.111,0.993-0.943,1.761-1.913,1.732
			c-1.048-0.03-1.298-0.671-1.266-1.55C78.482-429.81,79.163-430.023,80.258-430.222z"/>
		<path fill="#C69A71" d="M211.65-380.598c0.994-0.689,2.104-1.123,3.329-0.756c0.306,0.092,0.573,0.813,0.57,1.244
			c-0.001,0.254-0.613,0.76-0.871,0.713c-1.018-0.184-2.007-0.542-3.006-0.836C211.665-380.353,211.658-380.476,211.65-380.598z"/>
		<path fill="#C69A71" d="M262.654-238.313c0.579,0.546,1.329,1.16,1.284,1.224c-0.456,0.658-1.041,1.227-1.59,1.819
			c-0.485-0.58-0.971-1.16-1.456-1.74C261.409-237.393,261.927-237.775,262.654-238.313z"/>
		<path fill="#C69A71" d="M115.78-108.964c0.603,0.625,1.187,0.958,1.296,1.406c0.177,0.731-0.752,1.758-1.382,1.722
			c-1.031-0.06-1.316-0.895-1.239-1.642C114.502-107.929,115.171-108.314,115.78-108.964z"/>
		<path fill="#C69A71" d="M6.304-485.897c0.179-0.39,0.313-1.103,0.744-1.464c0.248-0.209,1.069,0.015,1.461,0.289
			c0.569,0.397,1.306,0.941,0.808,1.789c-0.145,0.245-0.839,0.326-1.223,0.234C7.53-485.185,7.02-485.543,6.304-485.897z"/>
		<path fill="#C69A71" d="M253.243-241.965c0.325,0,0.713-0.111,0.962,0.027c0.335,0.186,0.778,0.567,0.775,0.862
			c-0.002,0.296-0.448,0.752-0.781,0.844c-0.531,0.146-1.159,0.16-1.691,0.022c-0.417-0.109-0.994-0.477-1.076-0.827
			c-0.169-0.727,0.434-0.945,1.078-0.95c0.244-0.001,0.489,0,0.733,0C253.243-241.979,253.243-241.973,253.243-241.965z"/>
		<path fill="#C69A71" d="M246.364-348.585c-0.35,0.389-0.638,1.006-1.061,1.117c-0.825,0.218-1.079-0.485-1.173-1.175
			c-0.038-0.277-0.121-0.617-0.005-0.832c0.263-0.486,0.636-0.912,0.965-1.363c0.316,0.438,0.659,0.859,0.933,1.321
			c0.112,0.191,0.074,0.472,0.104,0.713C246.206-348.73,246.285-348.658,246.364-348.585z"/>
		<path fill="#C69A71" d="M49.401-431.242c0.036,0.713-2.193,2.207-2.75,1.919c-0.201-0.104-0.511-0.432-0.486-0.469
			c0.475-0.718,0.903-1.513,1.544-2.05c0.26-0.217,1.009,0.127,1.523,0.262C49.331-431.555,49.371-431.309,49.401-431.242z"/>
		<path fill="#C69A71" d="M49.857-426.449c-0.143,1.076-0.214,1.818-0.365,2.546c-0.031,0.148-0.381,0.346-0.551,0.317
			c-0.162-0.026-0.32-0.299-0.411-0.496c-0.212-0.463-0.423-0.933-0.56-1.42c-0.134-0.476-0.314-1.017-0.198-1.455
			c0.058-0.218,0.816-0.471,1.115-0.352C49.338-427.128,49.663-426.635,49.857-426.449z"/>
		<path fill="#C69A71" d="M164.088-260.299c-0.166,0.142-0.744,0.74-0.824,0.68c-0.667-0.505-1.242-1.131-1.846-1.72
			c0.405-0.291,0.791-0.79,1.219-0.829C163.625-262.259,164.117-261.652,164.088-260.299z"/>
		<path fill="#C69A71" d="M136.045-395.851c-1.228-0.041-1.991-0.792-1.88-1.681c0.042-0.336,0.457-0.625,0.702-0.936
			c0.643,0.585,1.303,1.154,1.886,1.793C136.788-396.635,136.202-396.029,136.045-395.851z"/>
		<path fill="#C69A71" d="M285.331-195.644c0.747,0.662,1.444,1.218,2.041,1.865c0.107,0.117-0.114,0.795-0.327,0.889
			c-0.292,0.129-0.766,0.035-1.08-0.124c-0.401-0.204-0.746-0.544-1.068-0.872c-0.23-0.235-0.585-0.609-0.523-0.81
			C284.469-195.005,284.873-195.218,285.331-195.644z"/>
		<path fill="#C69A71" d="M18.756-483.176c-0.089,2.184-0.916,2.897-2.259,2.279c-0.645-0.297-0.947-0.881-0.314-1.297
			C16.9-482.664,17.815-482.834,18.756-483.176z"/>
		<path fill="#C69A71" d="M408.542-14.519c-1.066-0.225-1.647-0.606-1.508-1.46c0.071-0.438,0.564-0.808,0.865-1.209
			c0.576,0.508,1.152,1.015,1.729,1.523C409.266-15.283,408.903-14.901,408.542-14.519z"/>
		<path fill="#C69A71" d="M397.072-210.63c0.172,0.177,0.645,0.459,0.787,0.859c0.192,0.538-1.045,1.581-1.887,1.565
			c-0.271-0.006-0.722-0.385-0.768-0.649C395.081-209.564,396.052-210.589,397.072-210.63z"/>
		<path fill="#C69A71" d="M115.831-226.777c0.473,0.56,1.009,1.079,1.389,1.695c0.176,0.285,0.144,0.799,0.009,1.129
			c-0.057,0.142-0.757,0.231-0.919,0.08c-0.459-0.425-0.899-0.942-1.132-1.512c-0.146-0.356,0.093-0.871,0.159-1.315
			C115.5-226.726,115.665-226.752,115.831-226.777z"/>
		<path fill="#C69A71" d="M459.269-133.65c-0.728-0.6-1.238-1.021-1.749-1.442c0.36-0.315,0.722-0.891,1.082-0.891
			c0.654,0.001,1.62-0.018,1.622,1.009C460.224-134.614,459.724-134.254,459.269-133.65z"/>
		<path fill="#C69A71" d="M117.318-285.939c0.567,0.629,1.165,0.988,1.207,1.403c0.089,0.881-0.683,0.93-1.358,0.928
			c-0.676-0.002-1.334-0.213-1.167-0.988C116.092-285.021,116.698-285.336,117.318-285.939z"/>
		<path fill="#C69A71" d="M203.846-377.535c0.709,0.83,1.205,1.35,1.582,1.945c0.039,0.063-0.863,0.88-0.934,0.826
			c-0.526-0.398-1.018-0.888-1.369-1.445C203.029-376.361,203.453-376.84,203.846-377.535z"/>
		<path fill="#C69A71" d="M385.129-331.648c-0.707,0.618-1.103,0.965-1.501,1.311c-0.313-0.435-0.845-0.857-0.871-1.31
			c-0.023-0.381,0.542-0.797,0.847-1.197C384.009-332.525,384.414-332.208,385.129-331.648z"/>
		<path fill="#C69A71" d="M383.805-301.449c-0.46-0.57-0.746-0.926-1.032-1.281c0.385-0.309,0.782-0.875,1.152-0.857
			c0.408,0.019,0.792,0.573,1.186,0.895C384.743-302.342,384.375-301.992,383.805-301.449z"/>
		<path fill="#C69A71" d="M381.859-151.628c-0.579,0.538-0.939,0.871-1.298,1.205c-0.287-0.411-0.8-0.822-0.799-1.232
			c0.001-0.4,0.526-0.801,0.821-1.2C380.938-152.516,381.29-152.176,381.859-151.628z"/>
		<path fill="#C69A71" d="M287.8-309.379c-0.549,0.543-0.878,0.868-1.207,1.193c-0.289-0.406-0.778-0.799-0.807-1.224
			c-0.024-0.355,0.489-0.745,0.765-1.12C286.906-310.202,287.262-309.875,287.8-309.379z"/>
		<path fill="#C69A71" d="M362.642-352.016c-0.573,0.494-0.929,0.801-1.285,1.108c-0.289-0.46-0.697-0.895-0.809-1.396
			c-0.045-0.198,0.621-0.811,0.869-0.761C361.803-352.986,362.107-352.504,362.642-352.016z"/>
		<path fill="#C69A71" d="M73.533-99.747c-0.55,0.45-0.946,1.006-1.239,0.955c-0.355-0.062-0.901-0.669-0.861-0.974
			c0.056-0.431,0.574-0.801,0.895-1.196C72.661-100.627,72.994-100.291,73.533-99.747z"/>
		<path fill="#C69A71" d="M361.338-469.227c-0.579-0.58-0.933-0.935-1.286-1.289c0.36-0.304,0.747-0.872,1.076-0.841
			c0.398,0.038,0.848,0.531,1.067,0.939C362.276-470.268,361.765-469.799,361.338-469.227z"/>
		<path fill="#C69A71" d="M123.262-190.374c-0.48-0.516-0.794-0.853-1.108-1.189c0.383-0.273,0.769-0.764,1.147-0.759
			c0.383,0.005,0.759,0.502,1.138,0.783C124.108-191.211,123.777-190.883,123.262-190.374z"/>
		<path fill="#C69A71" d="M222.621-414.696c-0.482-0.564-0.785-0.92-1.088-1.275c0.413-0.288,0.813-0.768,1.244-0.799
			c0.3-0.021,0.9,0.577,0.897,0.894C223.672-415.541,223.112-415.211,222.621-414.696z"/>
		<path fill="#C69A71" d="M177.556-392.487c-0.41-0.565-0.661-0.911-0.911-1.257c0.418-0.277,0.836-0.766,1.256-0.769
			c0.348-0.002,0.699,0.567,1.049,0.884C178.555-393.306,178.159-392.982,177.556-392.487z"/>
		<path fill="#C69A71" d="M111.823-124.538c-0.457-0.624-0.928-0.988-0.924-1.348c0.003-0.287,0.611-0.82,0.902-0.789
			c0.401,0.043,0.756,0.515,1.13,0.803C112.636-125.517,112.34-125.16,111.823-124.538z"/>
		<path fill="#C69A71" d="M226.35-323.859c-0.482,0.58-0.965,1.161-1.447,1.741c-0.274-0.235-0.775-0.46-0.787-0.708
			c-0.063-1.346,1.213-0.925,1.836-1.391C226.084-324.098,226.217-323.978,226.35-323.859z"/>
		<path fill="#C69A71" d="M337.273-482.493c-0.403-0.546-0.908-0.95-0.842-1.208c0.086-0.331,0.654-0.783,0.968-0.75
			c0.401,0.043,0.757,0.52,1.132,0.809C338.182-483.324,337.833-483.005,337.273-482.493z"/>
		<path fill="#C69A71" d="M368.735-240.026c-0.605,0.514-0.938,1.008-1.31,1.04c-0.267,0.023-0.843-0.594-0.817-0.887
			c0.031-0.374,0.472-0.871,0.846-1C367.688-240.953,368.121-240.454,368.735-240.026z"/>
		<path fill="#C69A71" d="M224.033-473.25c-0.508,0.512-0.832,0.839-1.157,1.166c-0.262-0.348-0.744-0.706-0.728-1.04
			c0.02-0.386,0.479-0.75,0.746-1.124C223.211-473.97,223.528-473.691,224.033-473.25z"/>
		<path fill="#C69A71" d="M230.19-35.191c0.225,0.407,0.634,0.822,0.617,1.219c-0.015,0.33-0.53,0.638-0.825,0.956
			c-0.297-0.308-0.813-0.599-0.837-0.927c-0.03-0.397,0.355-0.825,0.56-1.24C229.867-35.187,230.028-35.188,230.19-35.191z"/>
		<path fill="#C69A71" d="M481.976-294.908c-0.596,0.513-0.916,0.992-1.297,1.047c-0.262,0.037-0.607-0.518-0.915-0.808
			c0.354-0.304,0.671-0.697,1.08-0.87C481.025-295.616,481.395-295.248,481.976-294.908z"/>
		<path fill="#C69A71" d="M210.063-109.647c-0.672,0.4-1.082,0.837-1.376,0.769c-0.33-0.075-0.783-0.626-0.76-0.937
			c0.025-0.321,0.547-0.819,0.875-0.838C209.111-110.672,209.449-110.166,210.063-109.647z"/>
		<path fill="#C69A71" d="M255.035-405.848c-0.222-0.352-0.646-0.725-0.611-1.049c0.039-0.348,0.51-0.648,0.791-0.971
			c0.301,0.308,0.792,0.585,0.847,0.932c0.051,0.32-0.364,0.716-0.573,1.078C255.337-405.853,255.186-405.851,255.035-405.848z"/>
		<path fill="#C69A71" d="M225.824-245.811c-0.447-0.666-0.908-1.057-0.854-1.352c0.062-0.336,0.584-0.811,0.906-0.811
			c0.301-0.002,0.802,0.518,0.843,0.854C226.758-246.817,226.291-246.453,225.824-245.811z"/>
		<path fill="#C69A71" d="M239.98-436.855c-0.378-0.691-0.758-1.076-0.721-1.415c0.031-0.291,0.539-0.53,0.836-0.792
			c0.281,0.318,0.73,0.611,0.789,0.967C240.928-437.832,240.464-437.484,239.98-436.855z"/>
		<path fill="#C69A71" d="M468.53-226.237c0.421,0.663,0.828,1.023,0.811,1.363c-0.014,0.291-0.583,0.829-0.781,0.777
			c-0.355-0.094-0.776-0.51-0.858-0.863C467.642-225.216,468.086-225.589,468.53-226.237z"/>
		<path fill="#C69A71" d="M193.822-249.078c-0.634,0.368-1.001,0.755-1.295,0.706c-0.316-0.053-0.564-0.515-0.843-0.798
			c0.318-0.281,0.608-0.726,0.965-0.788C192.904-250.003,193.248-249.533,193.822-249.078z"/>
		<path fill="#C69A71" d="M422.334-224.769c-0.702,0.351-1.099,0.715-1.439,0.667c-0.286-0.04-0.768-0.655-0.697-0.844
			c0.127-0.343,0.578-0.726,0.934-0.77C421.398-225.747,421.727-225.272,422.334-224.769z"/>
		<path fill="#C69A71" d="M197.625-361.176c-0.351,0.223-0.707,0.623-1.049,0.611c-0.285-0.009-0.77-0.498-0.774-0.78
			c-0.004-0.3,0.434-0.821,0.718-0.851c0.341-0.034,0.726,0.35,1.091,0.553C197.615-361.486,197.62-361.332,197.625-361.176z"/>
		<path fill="#C69A71" d="M146.33-155.113c-0.604,0.398-0.982,0.833-1.238,0.77c-0.355-0.087-0.618-0.549-0.92-0.85
			c0.325-0.276,0.622-0.715,0.983-0.774C145.415-156.011,145.759-155.551,146.33-155.113z"/>
		<path fill="#C69A71" d="M109.698-187.323c-0.35,0.23-0.703,0.643-1.047,0.635c-0.29-0.006-0.774-0.487-0.793-0.781
			c-0.018-0.283,0.427-0.807,0.715-0.843c0.341-0.042,0.733,0.326,1.102,0.517C109.683-187.639,109.69-187.48,109.698-187.323z"/>
		<path fill="#C69A71" d="M201.967-116.637c-0.682,0.375-1.092,0.778-1.344,0.696c-0.342-0.112-0.719-0.569-0.775-0.927
			c-0.032-0.204,0.554-0.719,0.843-0.704C201.03-117.556,201.35-117.117,201.967-116.637z"/>
		<path fill="#C69A71" d="M247.479-113.649c-0.692,0.394-1.072,0.78-1.416,0.751c-0.285-0.024-0.789-0.615-0.73-0.82
			c0.1-0.343,0.543-0.746,0.895-0.805C246.493-114.568,246.843-114.117,247.479-113.649z"/>
		<path fill="#C69A71" d="M372.832-110.747c-0.693,0.453-1.046,0.858-1.392,0.853c-0.275-0.004-0.542-0.512-0.813-0.796
			c0.313-0.287,0.59-0.712,0.955-0.813C371.817-111.569,372.185-111.16,372.832-110.747z"/>
		<path fill="#C69A71" d="M36.125-104.607c-0.596,0.405-0.961,0.843-1.23,0.79c-0.357-0.069-0.638-0.523-0.952-0.812
			c0.32-0.279,0.613-0.722,0.971-0.783C35.186-105.458,35.54-105.019,36.125-104.607z"/>
		<path fill="#C69A71" d="M289.611-33.606c-0.42-0.578-0.87-0.935-0.82-1.195c0.068-0.356,0.517-0.642,0.802-0.957
			c0.292,0.311,0.745,0.587,0.82,0.944C290.468-34.556,290.021-34.191,289.611-33.606z"/>
		<path fill="#C69A71" d="M318.214-345.087c-0.683,0.38-1.092,0.786-1.344,0.704c-0.345-0.111-0.571-0.592-0.849-0.914
			c0.303-0.26,0.613-0.733,0.906-0.723C317.268-346.006,317.591-345.566,318.214-345.087z"/>
		<path fill="#C69A71" d="M154.151-343.428c0.409,0.578,0.852,0.938,0.799,1.195c-0.075,0.355-0.521,0.634-0.81,0.945
			c-0.289-0.313-0.741-0.592-0.814-0.949C153.273-342.49,153.729-342.85,154.151-343.428z"/>
		<path fill="#C69A71" d="M47.958-319.599c-0.4-0.691-0.791-1.067-0.759-1.404c0.028-0.294,0.531-0.544,0.824-0.814
			c0.284,0.315,0.729,0.6,0.797,0.958C48.87-320.599,48.423-320.243,47.958-319.599z"/>
		<path fill="#C69A71" d="M114.643-222.146c0.434,0.603,0.856,0.938,0.868,1.286c0.009,0.265-0.505,0.547-0.787,0.821
			c-0.285-0.321-0.681-0.605-0.811-0.98C113.847-221.213,114.252-221.569,114.643-222.146z"/>
		<path fill="#C69A71" d="M412.847-353.043c-0.376-0.615-0.801-1.017-0.725-1.258c0.109-0.342,0.588-0.567,0.908-0.843
			c0.244,0.308,0.672,0.61,0.682,0.926C413.722-353.922,413.291-353.611,412.847-353.043z"/>
		<path fill="#C69A71" d="M423.049-147.77c-0.438-0.658-0.855-1.011-0.842-1.349c0.01-0.295,0.503-0.573,0.782-0.858
			c0.301,0.3,0.76,0.562,0.849,0.914C423.901-148.807,423.474-148.428,423.049-147.77z"/>
		<path fill="#C69A71" d="M140.004-86.165c-0.364,0.203-0.745,0.587-1.087,0.555c-0.289-0.027-0.743-0.538-0.738-0.83
			c0.004-0.287,0.481-0.78,0.771-0.796c0.343-0.018,0.707,0.38,1.063,0.597C140.009-86.481,140.007-86.323,140.004-86.165z"/>
		<path fill="#C69A71" d="M363.406-38.745c-0.344,0.238-0.688,0.657-1.032,0.656c-0.286,0-0.779-0.476-0.8-0.771
			c-0.021-0.286,0.411-0.819,0.697-0.858c0.34-0.047,0.735,0.318,1.107,0.505C363.388-39.057,363.397-38.9,363.406-38.745z"/>
		<path fill="#C69A71" d="M481.961-304.648c-0.685,0.377-1.099,0.782-1.347,0.699c-0.345-0.117-0.567-0.6-0.842-0.926
			c0.306-0.256,0.62-0.727,0.913-0.713C481.024-305.572,481.344-305.131,481.961-304.648z"/>
		<path fill="#C69A71" d="M484.62-208.487c-0.37-0.608-0.76-0.965-0.719-1.26c0.045-0.311,0.501-0.563,0.777-0.842
			c0.288,0.307,0.743,0.583,0.808,0.932C485.534-209.404,485.064-209.056,484.62-208.487z"/>
		<path fill="#C69A71" d="M284.544-183.224c-0.411-0.589-0.86-0.964-0.798-1.208c0.088-0.345,0.555-0.594,0.859-0.884
			c0.261,0.291,0.704,0.566,0.731,0.879C285.363-184.143,284.951-183.81,284.544-183.224z"/>
		<path fill="#C69A71" d="M246.137-432.895c0.588,0.692,1.058,1.247,1.528,1.801c-0.173,0.127-0.46,0.395-0.503,0.359
			c-0.541-0.436-1.058-0.904-1.539-1.405C245.59-432.176,245.881-432.524,246.137-432.895z"/>
		<path fill="#C69A71" d="M73.499-440.874c-0.313,0.138-0.67,0.439-0.931,0.371c-0.349-0.09-0.624-0.466-0.931-0.72
			c0.268-0.235,0.556-0.682,0.8-0.66c0.385,0.035,0.74,0.387,1.108,0.603C73.531-441.145,73.515-441.009,73.499-440.874z"/>
		<path fill="#C69A71" d="M345.292-253.451c0.366,0.642,0.755,1.018,0.697,1.305c-0.063,0.305-0.56,0.742-0.841,0.723
			c-0.278-0.019-0.712-0.522-0.729-0.833C344.403-252.549,344.84-252.867,345.292-253.451z"/>
		<path fill="#C69A71" d="M83.476-417.195c0.374,0.611,0.801,1.016,0.722,1.25c-0.114,0.34-0.592,0.558-0.915,0.828
			c-0.243-0.307-0.668-0.608-0.676-0.922C82.598-416.332,83.031-416.637,83.476-417.195z"/>
		<path fill="#C69A71" d="M476.855-279.386c-0.67,0.374-1.061,0.767-1.329,0.697c-0.303-0.079-0.642-0.561-0.68-0.899
			c-0.023-0.205,0.503-0.67,0.768-0.658C475.934-280.233,476.237-279.84,476.855-279.386z"/>
		<path fill="#C69A71" d="M214.052-387.592c-0.642,0.383-1.008,0.777-1.295,0.727c-0.309-0.057-0.763-0.542-0.747-0.818
			c0.016-0.284,0.502-0.728,0.815-0.757C213.115-388.467,213.445-388.036,214.052-387.592z"/>
		<path fill="#C69A71" d="M53.062-14.393c-0.406-0.654-0.81-1.019-0.759-1.3c0.055-0.303,0.511-0.675,0.842-0.733
			c0.199-0.035,0.689,0.468,0.695,0.735C53.847-15.369,53.476-15.041,53.062-14.393z"/>
		<path fill="#C69A71" d="M293.905-164.266c-0.65,0.411-1.012,0.817-1.292,0.768c-0.304-0.054-0.676-0.506-0.738-0.837
			c-0.036-0.196,0.462-0.688,0.73-0.695C292.925-165.04,293.255-164.673,293.905-164.266z"/>
		<path fill="#C69A71" d="M41.653-455.156c-0.128-0.375-0.409-0.782-0.342-1.119c0.063-0.322,0.486-0.789,0.758-0.794
			c0.297-0.005,0.602,0.448,0.904,0.7c-0.23,0.275-0.461,0.551-0.692,0.825C42.072-455.414,41.862-455.285,41.653-455.156z"/>
		<path fill="#C69A71" d="M412.003-370.411c-0.512,0.339-0.832,0.716-1.103,0.683c-0.286-0.033-0.524-0.459-0.783-0.715
			c0.284-0.268,0.537-0.686,0.863-0.754C411.201-371.244,411.525-370.799,412.003-370.411z"/>
		<path fill="#C69A71" d="M438.341-4.482c-0.572,0.337-0.91,0.692-1.223,0.671c-0.259-0.018-0.487-0.479-0.729-0.743
			c0.285-0.261,0.544-0.671,0.867-0.731C437.486-5.329,437.805-4.901,438.341-4.482z"/>
		<path fill="#C69A71" d="M365.484-261.327c-0.477,0.366-0.805,0.794-1.024,0.745c-0.319-0.072-0.559-0.488-0.834-0.759
			c0.262-0.244,0.508-0.657,0.789-0.683C364.685-262.049,364.991-261.67,365.484-261.327z"/>
		<path fill="#C69A71" d="M243.049-467.685c-0.235-0.488-0.483-0.854-0.427-0.909c0.475-0.466,1.003-0.878,1.532-1.282
			c0.017-0.013,0.362,0.336,0.344,0.361C244.086-468.958,243.645-468.422,243.049-467.685z"/>
		<path fill="#C69A71" d="M239.13-397.704c-0.5,0.329-0.857,0.73-1.07,0.663c-0.312-0.096-0.52-0.527-0.771-0.815
			c0.276-0.225,0.55-0.617,0.831-0.622C238.388-398.481,238.663-398.083,239.13-397.704z"/>
		<path fill="#C69A71" d="M43.038-423.131c0.32,0.549,0.68,0.891,0.631,1.157c-0.05,0.278-0.496,0.483-0.77,0.721
			c-0.235-0.275-0.644-0.544-0.654-0.827C42.236-422.352,42.642-422.637,43.038-423.131z"/>
		<path fill="#C69A71" d="M127.791-355.935c-0.41,0.35-0.684,0.582-0.957,0.814c-0.218-0.336-0.58-0.662-0.603-1.011
			c-0.016-0.226,0.462-0.486,0.718-0.731C127.19-356.597,127.432-356.33,127.791-355.935z"/>
		<path fill="#C69A71" d="M51.005-88.38c-0.336-0.52-0.705-0.84-0.667-1.1c0.04-0.274,0.47-0.491,0.73-0.732
			c0.241,0.26,0.652,0.507,0.674,0.785C51.764-89.166,51.374-88.872,51.005-88.38z"/>
		<path fill="#C69A71" d="M322.919-466.225c0.338,0.605,0.645,0.904,0.613,1.162c-0.04,0.326-0.357,0.617-0.555,0.924
			c-0.209-0.252-0.569-0.493-0.588-0.76C322.366-465.217,322.634-465.557,322.919-466.225z"/>
		<path fill="#C69A71" d="M409.947-276.387c-0.379-0.512-0.733-0.783-0.751-1.076c-0.015-0.235,0.414-0.721,0.583-0.695
			c0.307,0.049,0.736,0.357,0.796,0.628C410.63-277.279,410.27-276.935,409.947-276.387z"/>
		<path fill="#C69A71" d="M78.396-218.671c-0.371-0.541-0.748-0.85-0.721-1.116c0.028-0.276,0.449-0.513,0.699-0.767
			c0.231,0.231,0.638,0.455,0.648,0.695C79.033-219.558,78.718-219.244,78.396-218.671z"/>
		<path fill="#C69A71" d="M80.338-204.679c0.339,0.442,0.732,0.749,0.683,0.941c-0.076,0.297-0.456,0.516-0.707,0.767
			c-0.219-0.241-0.59-0.47-0.614-0.73C79.679-203.945,80.022-204.223,80.338-204.679z"/>
		<path fill="#C69A71" d="M238.084-442.253c0.316,0.501,0.648,0.8,0.641,1.09c-0.006,0.226-0.512,0.66-0.664,0.609
			c-0.293-0.099-0.627-0.446-0.688-0.743C237.331-441.501,237.723-441.793,238.084-442.253z"/>
		<path fill="#C69A71" d="M370.484-327.032c-0.465,0.362-0.761,0.756-0.965,0.713c-0.299-0.063-0.642-0.401-0.744-0.698
			c-0.05-0.147,0.392-0.654,0.617-0.658C369.685-327.682,369.984-327.349,370.484-327.032z"/>
		<path fill="#C69A71" d="M90.469-236.551c0.365-0.371,0.73-0.741,1.096-1.112c0.178,0.187,0.524,0.521,0.51,0.539
			c-0.341,0.387-0.722,0.74-1.095,1.099C90.809-236.2,90.639-236.376,90.469-236.551z"/>
		<path fill="#C69A71" d="M221.221-486.795c-0.341-0.314-0.682-0.63-1.023-0.945c0.233-0.217,0.466-0.433,0.699-0.649
			c0.291,0.371,0.582,0.741,0.873,1.112C221.586-487.116,221.404-486.955,221.221-486.795z"/>
		<path fill="#C69A71" d="M436.136-154.184c-0.404,0.341-0.684,0.745-0.887,0.709c-0.299-0.052-0.543-0.418-0.811-0.65
			c0.252-0.25,0.471-0.631,0.766-0.703C435.404-154.878,435.711-154.495,436.136-154.184z"/>
		<path fill="#C69A71" d="M235.1-215.726c-0.584,0.311-0.908,0.622-1.197,0.593c-0.227-0.022-0.582-0.478-0.566-0.72
			c0.014-0.236,0.436-0.635,0.662-0.624C234.29-216.464,234.566-216.113,235.1-215.726z"/>
		<path fill="#C69A71" d="M325.541-183.378c-0.61,0.241-0.938,0.493-1.211,0.443c-0.257-0.047-0.456-0.411-0.682-0.635
			c0.295-0.152,0.585-0.408,0.887-0.424C324.769-184.005,325.018-183.715,325.541-183.378z"/>
		<path fill="#C69A71" d="M160.244-305.761c0.316,0.459,0.659,0.739,0.636,0.983c-0.024,0.26-0.398,0.485-0.618,0.727
			c-0.25-0.253-0.629-0.474-0.703-0.77C159.511-305.015,159.904-305.318,160.244-305.761z"/>
		<path fill="#C69A71" d="M244.109-475.578c-0.457,0.322-0.775,0.703-0.969,0.647c-0.293-0.084-0.499-0.473-0.742-0.733
			c0.251-0.211,0.493-0.573,0.755-0.588C243.398-476.268,243.664-475.912,244.109-475.578z"/>
		<path fill="#C69A71" d="M61.142-19.691c0.332,0.437,0.691,0.702,0.679,0.949c-0.012,0.26-0.379,0.503-0.592,0.753
			c-0.261-0.243-0.651-0.448-0.736-0.741C60.438-18.924,60.823-19.244,61.142-19.691z"/>
		<path fill="#C69A71" d="M231.904-481.65c0.365,0.43,0.775,0.715,0.736,0.91c-0.059,0.299-0.43,0.537-0.668,0.801
			c-0.232-0.229-0.617-0.438-0.654-0.693C231.283-480.879,231.611-481.176,231.904-481.65z"/>
		<path fill="#C69A71" d="M37.885-26.853c-0.42,0.358-0.709,0.772-0.905,0.732c-0.299-0.062-0.534-0.437-0.795-0.679
			c0.231-0.233,0.441-0.623,0.699-0.657C37.129-27.487,37.423-27.149,37.885-26.853z"/>
		<path fill="#C69A71" d="M444.33-189.509c0.287,0.466,0.648,0.807,0.581,0.998c-0.101,0.286-0.501,0.467-0.774,0.692
			c-0.196-0.262-0.549-0.525-0.546-0.785C443.595-188.85,443.969-189.091,444.33-189.509z"/>
		<path fill="#C69A71" d="M256.17-283.552c-0.291-0.495-0.614-0.801-0.57-1.038c0.048-0.251,0.443-0.438,0.687-0.652
			c0.214,0.246,0.584,0.484,0.596,0.739C256.895-284.262,256.529-284.004,256.17-283.552z"/>
		<path fill="#C69A71" d="M219.848-75.366c-0.293-0.436-0.631-0.72-0.6-0.954c0.033-0.248,0.488-0.67,0.637-0.623
			c0.294,0.091,0.629,0.422,0.701,0.714C220.629-76.055,220.205-75.765,219.848-75.366z"/>
		<path fill="#C69A71" d="M474.503-55.907c-0.365,0.234-0.656,0.523-0.758,0.467c-0.306-0.167-0.537-0.47-0.798-0.72
			c0.227-0.186,0.503-0.558,0.67-0.514C473.901-56.6,474.117-56.264,474.503-55.907z"/>
		<path fill="#C69A71" d="M47.287-50.263c-0.365,0.678-0.521,1.146-0.83,1.466c-0.159,0.165-0.592,0.066-0.9,0.087
			c0.062-0.277,0.032-0.673,0.205-0.808C46.118-49.796,46.582-49.935,47.287-50.263z"/>
		<path fill="#C69A71" d="M24.705-46.036c-0.286-0.452-0.614-0.74-0.581-0.979c0.035-0.253,0.413-0.458,0.641-0.684
			c0.24,0.256,0.609,0.484,0.674,0.778C25.48-46.734,25.066-46.449,24.705-46.036z"/>
		<path fill="#C69A71" d="M158.174-194.658c-0.449,0.359-0.709,0.727-0.949,0.716c-0.254-0.014-0.666-0.378-0.682-0.61
			c-0.015-0.228,0.355-0.635,0.608-0.681C157.388-195.275,157.691-194.948,158.174-194.658z"/>
		<path fill="#C69A71" d="M398.748-1.479c-0.498,0.308-0.768,0.603-1.036,0.599c-0.207-0.003-0.604-0.425-0.568-0.579
			c0.063-0.273,0.369-0.641,0.617-0.678C397.986-2.17,398.27-1.817,398.748-1.479z"/>
		<path fill="#C69A71" d="M176.607-486.566c0.309,0.422,0.492,0.674,0.678,0.926c-0.268,0.18-0.527,0.479-0.806,0.498
			c-0.193,0.014-0.604-0.392-0.577-0.551C175.947-485.958,176.268-486.175,176.607-486.566z"/>
		<path fill="#C69A71" d="M56.085-287.559c-0.5,0.313-0.802,0.648-1.028,0.604c-0.247-0.05-0.532-0.428-0.59-0.707
			c-0.03-0.145,0.396-0.547,0.609-0.541C55.342-288.195,55.599-287.889,56.085-287.559z"/>
		<path fill="#C69A71" d="M25.755-336.053c-0.508,0.297-0.821,0.625-1.048,0.574c-0.245-0.056-0.517-0.447-0.566-0.729
			c-0.025-0.147,0.414-0.537,0.624-0.523C25.032-336.713,25.28-336.398,25.755-336.053z"/>
		<path fill="#C69A71" d="M2.454-212.764c0.355,0.47,0.674,0.712,0.696,0.978c0.018,0.211-0.364,0.658-0.51,0.635
			c-0.284-0.046-0.681-0.308-0.743-0.554C1.841-211.929,2.165-212.249,2.454-212.764z"/>
		<path fill="#C69A71" d="M484.653-212.861c-0.453,0.359-0.716,0.726-0.946,0.706c-0.247-0.021-0.574-0.373-0.65-0.642
			c-0.043-0.153,0.334-0.594,0.542-0.607C483.864-213.423,484.149-213.14,484.653-212.861z"/>
		<path fill="#C69A71" d="M394.665-452.385c-0.295-0.473-0.627-0.771-0.585-1.002c0.046-0.248,0.448-0.607,0.681-0.597
			c0.226,0.011,0.589,0.421,0.602,0.671C395.374-453.076,395.011-452.819,394.665-452.385z"/>
		<path fill="#C69A71" d="M294.643-75.328c-0.489,0.335-0.776,0.683-1.005,0.647c-0.249-0.04-0.549-0.407-0.616-0.684
			c-0.035-0.146,0.373-0.564,0.583-0.566C293.872-75.934,294.143-75.639,294.643-75.328z"/>
		<path fill="#C69A71" d="M52.005-475.432c-0.286-0.535-0.584-0.84-0.544-1.089c0.041-0.256,0.414-0.458,0.641-0.683
			c0.199,0.248,0.543,0.492,0.554,0.748C52.667-476.199,52.342-475.93,52.005-475.432z"/>
		<path fill="#C69A71" d="M456.295-342.1c0.357,0.404,0.723,0.646,0.696,0.829c-0.041,0.274-0.315,0.601-0.575,0.72
			c-0.122,0.057-0.612-0.304-0.63-0.503C455.763-341.317,456.038-341.608,456.295-342.1z"/>
		<path fill="#C69A71" d="M436.101-308.757c-0.477,0.277-0.753,0.563-1.016,0.552c-0.2-0.01-0.582-0.478-0.532-0.6
			c0.107-0.265,0.415-0.556,0.687-0.609C435.42-309.449,435.679-309.096,436.101-308.757z"/>
		<path fill="#C69A71" d="M214.73-397.716c-0.451,0.29-0.737,0.608-0.916,0.558c-0.262-0.077-0.446-0.418-0.664-0.645
			c0.207-0.195,0.424-0.556,0.621-0.546C214.033-398.336,214.281-398.033,214.73-397.716z"/>
		<path fill="#C69A71" d="M388.675-282.559c-0.32-0.477-0.66-0.762-0.627-0.992c0.035-0.242,0.402-0.538,0.673-0.602
			c0.145-0.034,0.557,0.371,0.556,0.576C389.274-283.31,388.981-283.045,388.675-282.559z"/>
		<path fill="#C69A71" d="M381.474-217.894c-0.286-0.492-0.613-0.808-0.556-1.022c0.063-0.24,0.463-0.497,0.742-0.53
			c0.156-0.019,0.532,0.416,0.511,0.615C382.143-218.567,381.823-218.335,381.474-217.894z"/>
	</g>
</pattern>
<g id="background">
	<rect fill="#F2F2F2" width="1700" height="1000"/>
	<g>
		<g>
			<g>
				<g>
					<g>
						<path fill="#1F0000" d="M681.731,659.499c0,0.726,0,1.212-0.026,1.399l2.665,0.323l1.105,2.425
							c0.108-0.055,0.216-0.082,0.296-0.137c0.054-0.026,0.108-0.052,0.162-0.079c0.753-0.458,1.05-1.346,1.158-6.409
							C685.285,657.773,683.481,658.61,681.731,659.499z M638.913,784.019c0.889,1.833,1.832,3.637,2.827,5.386h1.562v-5.386
							H638.913z"/>
						<path fill="#1F0000" d="M815.813,724.532c-8.832-42.764-46.749-74.972-92.046-74.972c-13.006,0-25.394,2.64-36.677,7.461
							c-0.108,5.063-0.405,5.951-1.158,6.409c-0.054,0.026-0.108,0.052-0.162,0.079c-0.08,0.055-0.188,0.082-0.296,0.137
							l-1.105-2.425l-2.665-0.323c0.026-0.187,0.026-0.673,0.026-1.399c-30.807,15.455-51.974,47.342-51.974,84.073
							c0,14.461,3.285,28.194,9.156,40.447h4.389v5.386h-1.562c16.077,28.736,46.831,48.179,82.027,48.179
							c46.4,0,85.044-33.796,92.639-78.096c0.888-5.17,1.347-10.504,1.347-15.916C817.753,737.055,817.08,730.672,815.813,724.532z
							 M723.768,800.448c-31.373,0-56.902-25.501-56.902-56.875c0-31.374,25.529-56.876,56.902-56.876
							c31.346,0,56.876,25.502,56.876,56.876C780.643,774.946,755.114,800.448,723.768,800.448z"/>
					</g>
					<path fill="#735658" d="M723.768,686.696c-31.373,0-56.902,25.502-56.902,56.876c0,31.374,25.529,56.875,56.902,56.875
						c31.346,0,56.876-25.501,56.876-56.875C780.643,712.198,755.114,686.696,723.768,686.696z M723.768,754.047
						c-5.79,0-10.474-4.684-10.474-10.474c0-5.762,4.685-10.475,10.474-10.475c5.763,0,10.476,4.713,10.476,10.475
						C734.244,749.363,729.531,754.047,723.768,754.047z"/>
					<g>
						<path fill="#D9BABA" d="M734.244,743.572c0,5.791-4.713,10.474-10.476,10.474c-5.79,0-10.474-4.684-10.474-10.474
							c0-5.762,4.685-10.475,10.474-10.475C729.531,733.097,734.244,737.81,734.244,743.572z"/>
					</g>
				</g>
				<g>
					<g>
						<path fill="#1F0000" d="M1309.433,650.907c-5.144-0.889-10.425-1.346-15.837-1.346c-5.412,0-10.688,0.457-15.832,1.346
							c-6.653,1.105-13.033,2.935-19.119,5.386h19.44c5.039-0.889,10.235-1.346,15.511-1.346c5.281,0,10.477,0.458,15.511,1.346
							h19.445C1322.467,653.842,1316.082,652.011,1309.433,650.907z"/>
						<path fill="#1F0000" d="M1328.552,656.293h-69.906c-34.582,13.896-59.061,47.774-59.061,87.279
							c0,10.151,1.62,19.929,4.607,29.083c12.281,37.649,47.721,64.928,89.404,64.928c41.231,0,76.376-26.688,89.005-63.716
							c3.229-9.507,5.007-19.713,5.007-30.296C1387.608,704.067,1363.129,670.189,1328.552,656.293z M1293.596,800.448
							c-20.628,0-38.722-11.043-48.689-27.521c-5.196-8.566-8.184-18.635-8.184-29.354c0-31.374,25.499-56.876,56.873-56.876
							s56.878,25.502,56.878,56.876c0,11.014-3.151,21.302-8.594,30.028C1331.84,789.728,1313.957,800.448,1293.596,800.448z"/>
					</g>
					<g>
						<path fill="#735658" d="M1293.596,686.696c-31.374,0-56.873,25.502-56.873,56.876c0,10.719,2.988,20.789,8.184,29.354
							c9.967,16.479,28.061,27.521,48.689,27.521c20.36,0,38.243-10.719,48.284-26.848c5.444-8.726,8.594-19.014,8.594-30.028
							C1350.475,712.198,1324.97,686.696,1293.596,686.696z M1293.596,754.047c-5.759,0-10.472-4.684-10.472-10.474
							c0-5.762,4.713-10.475,10.472-10.475c5.765,0,10.477,4.713,10.477,10.475C1304.074,749.363,1299.361,754.047,1293.596,754.047
							z"/>
					</g>
					<g>
						<path fill="#D9BABA" d="M1304.074,743.572c0,5.791-4.713,10.474-10.477,10.474c-5.759,0-10.472-4.684-10.472-10.474
							c0-5.762,4.713-10.475,10.472-10.475C1299.361,733.097,1304.074,737.81,1304.074,743.572z"/>
					</g>
				</g>
				<g>
					<path fill="#1F0000" d="M1309.433,650.907h-31.669c-6.653,1.105-13.033,2.935-19.119,5.386h69.906
						C1322.467,653.842,1316.082,652.011,1309.433,650.907z"/>
					<path fill="#FFB315" d="M1411.224,547.417v226.64l-42.493-117.764h-40.179c-6.086-2.451-12.471-4.281-19.119-5.386
						c-5.144-0.889-10.425-1.346-15.837-1.346c-5.412,0-10.688,0.457-15.832,1.346c-6.653,1.105-13.033,2.935-19.119,5.386h-36.386
						l-43.892,43.895v71.984H903.091l-5.36-12.684h-81.325c0.888-5.17,1.347-10.504,1.347-15.916c0-6.517-0.673-12.9-1.94-19.04
						V636.58l-128.535-32.96c0.026-5.17,0.026-10.638,0.026-16.347v-11.821l70.61,10.285l5.494,0.781l12.792,1.886l5.466,0.781
						l49.982,7.271l3.636,0.539l1.023,2.396l7.971,19.011h363.334V486.26h142.459L1411.224,547.417z"/>
					<path fill="#FFD10C" d="M817.753,743.572c0,5.412-0.459,10.745-1.347,15.916h-0.593v-34.956
						C817.08,730.672,817.753,737.055,817.753,743.572z"/>
				</g>
				<g>
					<polygon fill="#1F0000" points="542.774,767.541 538.762,771.148 534.831,766.786 542.101,766.786 					"/>
					<path fill="#1F0000" d="M643.302,784.019v5.386h-1.562c-0.996-1.749-1.938-3.553-2.827-5.386H643.302z"/>
					<path fill="#1F0000" d="M687.091,657.021c-0.108,5.063-0.405,5.951-1.158,6.409c-0.054,0.026-0.108,0.052-0.162,0.079
						c-0.08,0.055-0.188,0.082-0.296,0.137l-1.105-2.425l-2.665-0.323c0.026-0.187,0.026-0.673,0.026-1.399
						C683.481,658.61,685.285,657.773,687.091,657.021z"/>
				</g>
				<g>
					<polygon fill="#1F0000" points="775.177,548.979 772.726,553.771 770.572,552.669 772.51,547.607 					"/>
					<polygon fill="#1F0000" points="785.006,521.942 782.609,526.763 780.805,525.874 782.744,520.811 					"/>
					<rect x="966.271" y="133.186" fill="#1F0000" width="5.386" height="2.693"/>
					<rect x="991.449" y="133.186" fill="#1F0000" width="5.386" height="2.693"/>
					
						<rect x="1158.726" y="163.314" transform="matrix(0.7062 -0.708 0.708 0.7062 223.1098 869.6658)" fill="#1F0000" width="1.445" height="5.371"/>
					
						<rect x="1176.525" y="181.116" transform="matrix(0.708 -0.7062 0.7062 0.708 213.9849 885.1002)" fill="#1F0000" width="1.449" height="5.371"/>
				</g>
				<g>
					<polygon fill="#1F0000" points="1212.997,218.527 1212.997,486.26 1207.611,486.26 1207.611,514.697 1187.63,514.697 
						1187.63,229.191 1122.22,163.779 945.453,163.779 874.195,348.838 872.175,354.063 867.788,365.48 865.874,370.489 
						836.576,446.592 833.372,446.592 833.372,451.978 834.502,451.978 781.666,589.185 776.2,588.404 763.409,586.518 
						757.915,585.737 770.572,552.669 772.726,553.771 775.177,548.979 772.51,547.607 780.805,525.874 782.609,526.763 
						785.006,521.942 782.744,520.811 930.989,133.186 966.271,133.186 966.271,135.879 971.656,135.879 971.656,133.186 
						991.449,133.186 991.449,135.879 996.835,135.879 996.835,133.186 1127.685,133.186 1158.06,163.589 1157.039,164.612 
						1160.837,168.41 1161.857,167.387 1175.864,181.391 1174.838,182.414 1178.636,186.211 1179.661,185.188 					"/>
					<polygon fill="#1F0000" points="836.576,446.592 834.502,451.978 833.372,451.978 833.372,446.592 					"/>
				</g>
				<g>
					<polygon fill="#4C2F31" points="1207.611,514.697 1207.611,618.402 908.262,618.402 948.009,514.697 					"/>
				</g>
				<g>
					<path fill="#FFB315" d="M1146.83,356.728l-32.557,146.874c-0.994,4.497-4.039,8.51-7.969,11.095H975.422
						c-3.634-2.719-5.975-7.082-5.975-11.955v-7.082c0-8.268,6.732-15.027,15.001-15.027h74.325c5.575,0,11.497-4.526,12.981-9.883
						l31.4-115.447c2.072-7.648,10.23-13.896,18.151-13.896h13.249c4.092,0,7.674,1.615,10.015,4.55
						C1146.915,348.893,1147.719,352.717,1146.83,356.728z"/>
				</g>
				<g>
					<polygon fill="#1F0000" points="836.576,446.592 834.502,451.978 833.372,451.978 833.372,446.592 					"/>
				</g>
				<g>
					<polygon fill="#735658" points="895.47,446.592 836.307,599.391 835.284,596.995 831.648,596.456 781.666,589.185 
						834.502,451.978 836.576,446.592 					"/>
					<path fill="#4C2F31" d="M899.136,393.353l-14.811,53.238h-19.014l14.974-66.435c1.504,1.052,3.093,2.128,4.765,3.34
						l9.399,6.543C895.98,391.118,897.542,392.223,899.136,393.353z"/>
					<path fill="#735658" d="M977.121,425.077h-33.499l-0.699-0.513c-12.765-9.21-29.191-20.926-43.787-31.211
						c-1.594-1.131-3.156-2.235-4.686-3.314l-9.399-6.543c-1.673-1.212-3.261-2.288-4.765-3.34
						c-6.464-4.442-11.582-7.889-14.412-9.667l1.915-5.01l4.387-11.416l2.02-5.225L977.121,425.077z"/>
				</g>
				<g>
					<path fill="#735658" d="M706.345,192.594v372.785h-19.04c0.028-12.494,0.028-25.825,0.028-39.695
						c0-31.616-0.028-66.193-0.054-100.77c-0.08-105.672-0.188-211.289-0.216-232.32H706.345z"/>
					<path fill="#4C2F31" d="M815.813,636.58v87.952c-8.832-42.764-46.749-74.972-92.046-74.972c-13.006,0-25.394,2.64-36.677,7.461
						c0.108-3.287,0.108-8.35,0.134-16.187c0.026-9.612,0.054-22.269,0.054-37.215L815.813,636.58z"/>
					<path fill="#1F0000" d="M687.332,525.684c0,13.87,0,27.201-0.028,39.695v21.893c0,5.71,0,11.177-0.026,16.347
						c0,14.945-0.027,27.603-0.054,37.215c-0.026,7.837-0.026,12.899-0.134,16.187c-1.805,0.752-3.609,1.589-5.36,2.478
						c-30.807,15.455-51.974,47.342-51.974,84.073c0,14.461,3.285,28.194,9.156,40.447c0.889,1.833,1.832,3.637,2.827,5.386H301.7
						v-17.367h241.775v-5.252h28.384v-48.097h17.746v-256.18h46.939V186.13h50.519v2.693c0,0,0,1.294,0,3.771
						c0.028,21.031,0.135,126.648,0.216,232.32C687.305,459.491,687.332,494.068,687.332,525.684z"/>
				</g>
				<g>
					<polygon fill="#4C2F31" points="782.744,520.811 780.805,525.874 772.51,547.607 770.572,552.669 706.345,519.922 
						706.345,482.976 					"/>
					<polygon fill="#1F0000" points="785.006,521.942 782.609,526.763 780.805,525.874 782.744,520.811 					"/>
				</g>
				<g>
					<polygon fill="#1F0000" points="775.177,548.979 772.726,553.771 770.572,552.669 772.51,547.607 					"/>
				</g>
			</g>
			<g>
				<path fill="#FF801F" d="M996.835,117.541v15.645h-30.564v-15.645c0-8.269,6.732-15.001,15.001-15.001h0.536
					C990.076,102.54,996.835,109.272,996.835,117.541z"/>
				<rect x="966.271" y="133.186" fill="#1F0000" width="5.386" height="2.693"/>
				<rect x="991.449" y="133.186" fill="#1F0000" width="5.386" height="2.693"/>
			</g>
			<g>
				<path fill="#FF801F" d="M1426.035,633.429v0.513c0,8.429-4.413,15.027-10.099,15.027h-4.713v-30.567h4.713
					C1421.622,618.402,1426.035,625,1426.035,633.429z"/>
				<path fill="#FF801F" d="M1435.166,598.071v0.539c0,8.294-6.569,15.027-14.675,15.027h-9.268v-30.564h9.268
					C1428.597,583.073,1435.166,589.805,1435.166,598.071z"/>
			</g>
			<g>
				<g>
					<path fill="#1F0000" d="M542.101,766.786l-4.012-4.471v4.337h-3.366l0.108,0.134l3.932,4.363l4.012-3.608L542.101,766.786z
						 M542.774,467.168l-4.012-3.611l-4.039,4.5h3.366v4.334L542.774,467.168z M269.52,463.557l-3.986,3.611l4.685,5.223v-4.334
						h3.34L269.52,463.557z M270.22,766.651v-4.337l-4.685,5.226l3.986,3.608l4.039-4.497H270.22z"/>
					<path fill="#CC6D3D" d="M264.834,462.671v309.367h278.641V462.671H264.834z M542.774,767.541l-4.012,3.608l-3.932-4.363
						l-0.108-0.134L404.141,621.392L273.56,766.651l-4.039,4.497l-3.986-3.608l4.685-5.226l130.313-144.962L270.22,472.391
						l-4.685-5.223l3.986-3.611l4.039,4.5l130.581,145.257l130.582-145.257l4.039-4.5l4.012,3.611l-4.685,5.223L407.776,617.353
						l130.313,144.962l4.012,4.471L542.774,767.541z"/>
				</g>
				<g>
					<polygon fill="#8D4D2C" points="542.774,767.541 538.762,771.148 534.831,766.786 534.723,766.651 404.141,621.392 
						400.532,617.353 270.22,472.391 265.535,467.168 269.52,463.557 273.56,468.057 404.141,613.313 407.776,617.353 
						538.089,762.315 542.101,766.786 					"/>
				</g>
				<g>
					<polygon fill="#8D4D2C" points="542.774,467.168 538.089,472.391 407.776,617.353 404.141,621.392 273.56,766.651 
						269.52,771.148 265.535,767.541 270.22,762.315 400.532,617.353 404.141,613.313 534.723,468.057 538.762,463.557 					"/>
				</g>
			</g>
		</g>
		<path opacity="0.32" fill="#545658" d="M1398.484,864.643H277.574c-7.007,0-12.74-5.733-12.74-12.74v-1.579
			c0-7.007,5.733-12.74,12.74-12.74h1120.91c7.007,0,12.74,5.733,12.74,12.74v1.579
			C1411.224,858.91,1405.491,864.643,1398.484,864.643z"/>
	</g>
	<pattern  id="SVGID_1_" xlink:href="#Motivo_nuevo_3" patternTransform="matrix(1.0099 0 0 0.5941 -873.4203 -2909.6782)">
	</pattern>
	<rect opacity="0.53" fill="url(#SVGID_1_)" width="1700" height="1000"/>
</g>
<g id="vexels">
	<g>
		<g>
			<path fill="#3B3B3C" d="M854.006,951.359l-0.759-1.643c-0.373-0.79-1.366-1.158-2.2-0.818c-0.903,0.309-1.306,1.242-0.934,2.004
				l0.853,1.849l6.747,14.64c0.064,0.058,0.125,0.17,0.154,0.227c0,0.028,0.035,0.028,0.035,0.028
				c0.03,0.056,0.093,0.113,0.155,0.171c0,0.055,0.029,0.055,0.029,0.083c0.091,0.058,0.155,0.086,0.216,0.143c0.03,0,0.03,0,0.03,0
				c0.094,0.056,0.219,0.141,0.281,0.168c0.03,0,0.03,0,0.03,0s0.032,0,0.032,0.031c0.061,0,0.186,0.028,0.249,0.053
				c0.027,0,0.061,0,0.061,0c0.093,0.029,0.218,0.029,0.313,0.029c0.091,0,0.186,0,0.31-0.029c0.029,0,0.059,0,0.059,0
				c0.094-0.026,0.155-0.053,0.25-0.053c0.032-0.031,0.032-0.031,0.061-0.031c0.094-0.028,0.188-0.112,0.249-0.143
				c0.061-0.026,0.061-0.026,0.061-0.026c0.062-0.057,0.123-0.085,0.184-0.143c0.033-0.027,0.033-0.027,0.064-0.083
				c0.032-0.058,0.123-0.115,0.154-0.171c0.03,0,0.03,0,0.03-0.028c0.065-0.057,0.098-0.168,0.128-0.227l0.289-0.621l-1.839-3.982
				L854.006,951.359z M919.819,951.242c0.526-0.707,0.405-1.667-0.371-2.148c-0.776-0.536-1.801-0.395-2.388,0.339l-3.537,4.41
				l2.106,2.576L919.819,951.242z M867.58,948.898c-0.835-0.34-1.859,0.028-2.232,0.818l-4.495,9.71l1.845,3.986l5.814-12.51
				C868.853,950.14,868.451,949.207,867.58,948.898z M827.535,942.929c-0.73-0.73-1.7-1.13-2.731-1.13s-2,0.4-2.73,1.13
				l-12.498,12.501c-1.504,1.508-1.504,3.954,0,5.457l12.498,12.503c0.73,0.728,1.699,1.128,2.73,1.128s2.001-0.4,2.731-1.126
				l12.499-12.505c0.73-0.731,1.132-1.696,1.132-2.73c0-1.027-0.402-1.997-1.132-2.727L827.535,942.929z M838.093,959.28
				l-12.167,12.166c-0.601,0.601-1.643,0.601-2.239,0l-12.169-12.166c-0.618-0.619-0.618-1.624-0.003-2.244l12.172-12.168
				c0.01-0.01,0.02-0.02,0.032-0.027v10.083c-0.495,0.168-0.953,0.433-1.333,0.815c-0.647,0.647-1.001,1.503-1.001,2.417
				s0.354,1.777,1.001,2.418c0.645,0.651,1.505,1.004,2.417,1.004c0.916,0,1.775-0.353,2.422-1.004c1.332-1.331,1.332-3.502,0-4.839
				c-0.38-0.38-0.837-0.643-1.334-0.811v-10.083c0.01,0.007,0.023,0.017,0.035,0.027l12.167,12.168
				c0.301,0.299,0.461,0.698,0.461,1.12C838.554,958.581,838.394,958.976,838.093,959.28z M913.928,958.524l-2.082-2.597
				l-5.239-6.493c-0.531-0.734-1.615-0.876-2.361-0.339c-0.775,0.481-0.93,1.441-0.404,2.148l5.895,7.282l-5.895,7.344
				c-0.526,0.676-0.371,1.666,0.404,2.145c0.28,0.197,0.623,0.31,0.993,0.31c0.529,0,1.023-0.255,1.369-0.65l5.239-6.522
				l5.597,7.004c0.323,0.402,0.835,0.611,1.309,0.611c0.355,0,0.769-0.163,1.067-0.4c0.704-0.56,0.757-1.573,0.196-2.274
				L913.928,958.524z M886.492,948.592c-5.017,0-9.101,4.436-9.101,9.887c0,5.408,4.084,9.812,9.101,9.812
				c3.081,0,5.922-1.682,7.594-4.5c0.404-0.729,0.201-1.634-0.51-2.174c-0.229-0.147-0.499-0.226-0.775-0.226
				c-0.537,0-1.014,0.287-1.272,0.758c-1.051,1.854-2.981,3.001-5.036,3.001c-3.043,0-5.567-2.421-6.02-5.699h13.539
				c0.848,0,1.508-0.657,1.508-1.497l-0.001-0.199C895.133,952.53,891.252,948.592,886.492,948.592z M880.693,956.346
				c0.823-2.778,3.1-4.612,5.799-4.612c2.646,0,4.933,1.875,5.703,4.612H880.693z M964.056,965.1c-0.032,0-2.332,0-2.366,0
				c-0.876,0-1.896-0.506-1.896-1.923v-15.724c0-0.925-0.754-1.675-1.683-1.675c-0.892,0-1.676,0.784-1.676,1.675v15.724
				c0,3.109,2.064,5.117,5.256,5.117c0.042,0,2.347,0,2.387-0.003c0.828-0.06,1.481-0.753,1.481-1.595
				C965.557,965.85,964.893,965.149,964.056,965.1z M989.729,959.91c-0.714-1.047-1.831-1.781-3.103-2.343
				c-1.24-0.537-2.698-0.904-4.281-1.186h-0.064c-1.672-0.283-3.068-0.738-3.875-1.245c-0.404-0.251-0.686-0.505-0.841-0.733
				c-0.154-0.224-0.216-0.453-0.216-0.788c0-0.595,0.339-1.214,1.182-1.779c0.835-0.565,2.078-0.961,3.472-0.961
				c1.892,0,3.411,0.846,4.996,1.807c0.745,0.45,1.737,0.253,2.202-0.424c0.496-0.65,0.28-1.554-0.432-2.004
				c-1.583-0.932-3.789-2.261-6.766-2.261c-2.018,0-3.906,0.537-5.365,1.497c-1.428,0.965-2.484,2.429-2.484,4.126
				c0,0.845,0.248,1.636,0.716,2.312c0.68,0.99,1.705,1.698,2.88,2.203c1.182,0.508,2.549,0.848,4.003,1.102h0.066
				c1.828,0.31,3.351,0.789,4.25,1.326c0.463,0.284,0.742,0.564,0.93,0.849c0.186,0.283,0.278,0.534,0.278,0.902
				c0,0.707-0.401,1.413-1.336,2.034c-0.929,0.62-2.325,1.045-3.875,1.045c-2.205,0.027-4.562-1.159-5.926-2.174
				c-0.685-0.511-1.707-0.425-2.266,0.193c-0.528,0.623-0.435,1.556,0.248,2.063c1.771,1.273,4.591,2.798,7.944,2.824
				c2.201,0,4.218-0.592,5.739-1.606c1.55-1.02,2.666-2.571,2.666-4.38C990.472,961.431,990.195,960.587,989.729,959.91z
				 M938.298,948.592c-5.017,0-9.099,4.436-9.099,9.887c0,5.408,4.083,9.812,9.099,9.812c3.085,0,5.919-1.682,7.597-4.5
				c0.402-0.729,0.199-1.634-0.509-2.174c-0.232-0.147-0.501-0.226-0.778-0.226c-0.536,0-1.011,0.287-1.272,0.758
				c-1.05,1.854-2.981,3.001-5.038,3.001c-3.044,0-5.567-2.421-6.019-5.699h13.541c0.844,0,1.507-0.657,1.507-1.497v-0.199
				C946.942,952.53,943.061,948.592,938.298,948.592z M932.501,956.346c0.821-2.778,3.1-4.612,5.798-4.612
				c2.651,0,4.935,1.875,5.705,4.612H932.501z"/>
		</g>
		<g>
			<path fill="#3B3B3C" d="M716.639,959.469c0,0.588,0.005,1.119,0.015,1.598c0.012,0.474,0.065,0.945,0.156,1.406h-0.932
				l-0.344-1.225h-0.07c-0.229,0.402-0.563,0.736-1.001,1c-0.437,0.264-0.948,0.396-1.536,0.396c-1.149,0-2.005-0.36-2.563-1.088
				c-0.558-0.724-0.836-1.857-0.836-3.4c0-1.471,0.349-2.589,1.045-3.354c0.695-0.765,1.653-1.146,2.872-1.146
				c0.425,0,0.762,0.022,1.01,0.067c0.247,0.046,0.514,0.121,0.801,0.225v-3.589h1.382V959.469z M713.152,961.439
				c0.586,0,1.052-0.155,1.398-0.459c0.343-0.305,0.579-0.768,0.706-1.389v-4.279c-0.208-0.16-0.441-0.276-0.706-0.346
				c-0.267-0.069-0.616-0.103-1.053-0.103c-0.794,0-1.415,0.263-1.863,0.787c-0.448,0.522-0.673,1.358-0.673,2.507
				c0,0.473,0.038,0.91,0.113,1.312c0.073,0.405,0.197,0.749,0.37,1.036c0.172,0.289,0.399,0.515,0.682,0.682
				C712.408,961.354,712.75,961.439,713.152,961.439z"/>
			<path fill="#3B3B3C" d="M725.594,961.748c-0.347,0.277-0.779,0.495-1.303,0.656c-0.524,0.161-1.078,0.241-1.665,0.241
				c-0.656,0-1.226-0.106-1.71-0.319c-0.481-0.212-0.88-0.517-1.19-0.914c-0.31-0.397-0.541-0.873-0.689-1.424
				c-0.151-0.551-0.226-1.171-0.226-1.862c0-1.473,0.33-2.596,0.986-3.367c0.655-0.769,1.592-1.157,2.812-1.157
				c0.391,0,0.781,0.045,1.173,0.132c0.392,0.084,0.742,0.249,1.052,0.492c0.311,0.241,0.565,0.584,0.76,1.025
				c0.195,0.444,0.293,1.027,0.293,1.751c0,0.38-0.034,0.802-0.104,1.26h-5.538c0,0.506,0.05,0.955,0.155,1.347
				c0.103,0.391,0.263,0.721,0.483,0.991c0.219,0.272,0.502,0.479,0.853,0.623c0.351,0.144,0.779,0.217,1.286,0.217
				c0.391,0,0.781-0.071,1.174-0.209c0.391-0.136,0.684-0.299,0.88-0.482L725.594,961.748z M722.626,954.812
				c-0.679,0-1.223,0.177-1.631,0.534c-0.409,0.357-0.653,0.966-0.733,1.83h4.279c0-0.876-0.167-1.488-0.501-1.839
				C723.706,954.986,723.235,954.812,722.626,954.812z"/>
			<path fill="#3B3B3C" d="M731.856,960.091c0-0.347-0.103-0.616-0.309-0.811c-0.209-0.196-0.465-0.359-0.77-0.492
				c-0.305-0.132-0.638-0.26-0.999-0.38c-0.363-0.119-0.697-0.276-1.002-0.465c-0.305-0.19-0.56-0.435-0.768-0.733
				c-0.206-0.301-0.311-0.704-0.311-1.21c0-0.828,0.235-1.432,0.707-1.819c0.471-0.386,1.128-0.58,1.968-0.58
				c0.621,0,1.142,0.057,1.561,0.167c0.42,0.109,0.785,0.238,1.096,0.389l-0.328,1.136c-0.265-0.125-0.584-0.238-0.957-0.334
				c-0.375-0.098-0.774-0.148-1.201-0.148c-0.506,0-0.877,0.085-1.112,0.258c-0.237,0.174-0.354,0.472-0.354,0.897
				c0,0.299,0.102,0.533,0.312,0.699c0.206,0.167,0.461,0.317,0.766,0.449c0.305,0.132,0.638,0.261,1.002,0.388
				c0.362,0.127,0.695,0.294,1,0.501c0.305,0.206,0.561,0.468,0.767,0.784c0.208,0.317,0.31,0.732,0.31,1.25
				c0,0.37-0.06,0.716-0.18,1.036c-0.122,0.323-0.308,0.599-0.562,0.828c-0.254,0.231-0.566,0.412-0.941,0.543
				c-0.374,0.132-0.813,0.199-1.319,0.199c-0.657,0-1.215-0.065-1.674-0.189c-0.461-0.128-0.846-0.276-1.157-0.448l0.414-1.174
				c0.265,0.15,0.609,0.288,1.036,0.415c0.425,0.126,0.856,0.191,1.293,0.191c0.495,0,0.904-0.099,1.225-0.295
				C731.695,960.948,731.856,960.598,731.856,960.091z"/>
			<path fill="#3B3B3C" d="M735.325,951.188c0-0.264,0.088-0.492,0.267-0.684c0.179-0.19,0.407-0.284,0.682-0.284
				c0.276,0,0.511,0.094,0.707,0.284c0.196,0.192,0.293,0.42,0.293,0.684c0,0.262-0.097,0.483-0.293,0.655
				c-0.196,0.174-0.431,0.26-0.707,0.26c-0.276,0-0.504-0.086-0.682-0.26C735.413,951.671,735.325,951.45,735.325,951.188z
				 M735.618,953.81h1.38v8.626h-1.38V953.81z"/>
			<path fill="#3B3B3C" d="M746.557,962.834c0,1.116-0.297,1.939-0.889,2.469c-0.592,0.529-1.468,0.792-2.631,0.792
				c-0.69,0-1.245-0.042-1.665-0.129c-0.419-0.086-0.779-0.199-1.08-0.337l0.364-1.173c0.265,0.105,0.558,0.203,0.88,0.294
				c0.322,0.093,0.742,0.138,1.26,0.138c0.483,0,0.876-0.044,1.181-0.129c0.305-0.085,0.55-0.231,0.733-0.432
				c0.184-0.2,0.311-0.46,0.38-0.776c0.068-0.317,0.103-0.693,0.103-1.13v-0.827h-0.069c-0.231,0.334-0.524,0.59-0.879,0.768
				c-0.357,0.179-0.823,0.269-1.399,0.269c-1.161,0-2.016-0.363-2.562-1.089c-0.547-0.724-0.82-1.852-0.82-3.383
				c0-1.471,0.351-2.589,1.052-3.354c0.702-0.765,1.737-1.146,3.106-1.146c0.656,0,1.218,0.051,1.683,0.154
				c0.466,0.103,0.883,0.225,1.251,0.361V962.834z M743.089,961.419c0.586,0,1.047-0.146,1.38-0.44
				c0.334-0.293,0.571-0.75,0.709-1.371v-4.418c-0.461-0.22-1.048-0.328-1.761-0.328c-0.782,0-1.397,0.266-1.846,0.794
				c-0.448,0.529-0.673,1.358-0.673,2.484c0,0.484,0.041,0.926,0.12,1.328c0.081,0.405,0.208,0.749,0.38,1.036
				c0.172,0.289,0.396,0.513,0.673,0.673C742.347,961.34,742.685,961.419,743.089,961.419z"/>
			<path fill="#3B3B3C" d="M754.753,962.437v-4.915c0-0.898-0.129-1.575-0.389-2.027c-0.258-0.456-0.734-0.682-1.423-0.682
				c-0.611,0-1.115,0.164-1.511,0.492c-0.396,0.326-0.676,0.739-0.837,1.234v5.899h-1.38v-8.626h0.966l0.258,1.052h0.07
				c0.277-0.368,0.647-0.672,1.113-0.907c0.465-0.234,1.022-0.355,1.664-0.355c0.473,0,0.887,0.057,1.242,0.167
				c0.357,0.109,0.653,0.301,0.89,0.576c0.235,0.276,0.414,0.648,0.534,1.113c0.122,0.466,0.182,1.056,0.182,1.769v5.21H754.753z"/>
			<path fill="#3B3B3C" d="M764.95,961.748c-0.344,0.277-0.778,0.495-1.302,0.656c-0.524,0.161-1.079,0.241-1.665,0.241
				c-0.655,0-1.226-0.106-1.708-0.319c-0.483-0.212-0.881-0.517-1.191-0.914c-0.31-0.397-0.541-0.873-0.689-1.424
				c-0.15-0.551-0.225-1.171-0.225-1.862c0-1.473,0.328-2.596,0.984-3.367c0.654-0.769,1.593-1.157,2.812-1.157
				c0.392,0,0.783,0.045,1.174,0.132c0.389,0.084,0.74,0.249,1.052,0.492c0.31,0.241,0.562,0.584,0.758,1.025
				c0.196,0.444,0.294,1.027,0.294,1.751c0,0.38-0.035,0.802-0.102,1.26h-5.54c0,0.506,0.053,0.955,0.155,1.347
				c0.103,0.391,0.265,0.721,0.483,0.991c0.219,0.272,0.502,0.479,0.853,0.623c0.351,0.144,0.779,0.217,1.286,0.217
				c0.392,0,0.783-0.071,1.175-0.209c0.39-0.136,0.683-0.299,0.879-0.482L764.95,961.748z M761.983,954.812
				c-0.679,0-1.222,0.177-1.631,0.534c-0.408,0.357-0.653,0.966-0.734,1.83h4.28c0-0.876-0.168-1.488-0.501-1.839
				C763.063,954.986,762.591,954.812,761.983,954.812z"/>
			<path fill="#3B3B3C" d="M774.045,959.469c0,0.588,0.004,1.119,0.016,1.598c0.013,0.474,0.064,0.945,0.155,1.406h-0.932
				l-0.344-1.225h-0.069c-0.231,0.402-0.565,0.736-1,1c-0.439,0.264-0.951,0.396-1.537,0.396c-1.149,0-2.004-0.36-2.563-1.088
				c-0.557-0.724-0.837-1.857-0.837-3.4c0-1.471,0.348-2.589,1.045-3.354c0.695-0.765,1.653-1.146,2.873-1.146
				c0.425,0,0.762,0.022,1.008,0.067c0.249,0.046,0.515,0.121,0.803,0.225v-3.589h1.382V959.469z M770.559,961.439
				c0.587,0,1.052-0.155,1.398-0.459c0.344-0.305,0.58-0.768,0.707-1.389v-4.279c-0.206-0.16-0.443-0.276-0.707-0.346
				c-0.264-0.069-0.616-0.103-1.053-0.103c-0.794,0-1.414,0.263-1.862,0.787c-0.449,0.522-0.674,1.358-0.674,2.507
				c0,0.473,0.037,0.91,0.112,1.312c0.074,0.405,0.199,0.749,0.37,1.036c0.174,0.289,0.4,0.515,0.684,0.682
				C769.814,961.354,770.156,961.439,770.559,961.439z"/>
			<path fill="#3B3B3C" d="M781.308,950.359h1.38v4.297h0.07c0.264-0.334,0.6-0.592,1.008-0.777
				c0.407-0.184,0.855-0.279,1.336-0.279c1.118,0,1.952,0.359,2.512,1.072c0.558,0.714,0.836,1.818,0.836,3.313
				c0,1.508-0.369,2.653-1.105,3.433c-0.736,0.783-1.772,1.173-3.105,1.173c-0.645,0-1.228-0.068-1.75-0.206
				c-0.524-0.138-0.918-0.288-1.183-0.449V950.359z M784.863,954.812c-0.576,0-1.042,0.159-1.398,0.481
				c-0.358,0.323-0.615,0.778-0.777,1.363v4.348c0.218,0.127,0.485,0.224,0.794,0.287c0.31,0.062,0.632,0.094,0.966,0.094
				c0.781,0,1.407-0.278,1.872-0.83c0.465-0.552,0.697-1.414,0.697-2.586c0-0.448-0.039-0.869-0.119-1.261
				c-0.081-0.391-0.207-0.724-0.38-1.001c-0.172-0.276-0.393-0.495-0.663-0.653C785.584,954.893,785.253,954.812,784.863,954.812z"
				/>
			<path fill="#3B3B3C" d="M792.964,959.401l0.485,1.655h0.087l0.381-1.671l1.68-5.574h1.38l-2.554,7.747
				c-0.196,0.563-0.388,1.11-0.578,1.64c-0.19,0.529-0.401,1-0.63,1.415c-0.231,0.415-0.491,0.745-0.776,0.992
				c-0.289,0.247-0.621,0.37-1.002,0.37c-0.414,0-0.753-0.058-1.018-0.171l0.241-1.191c0.15,0.058,0.293,0.085,0.432,0.085
				c0.323,0,0.632-0.17,0.932-0.508c0.298-0.339,0.546-0.923,0.742-1.753l-3.469-8.626h1.587L792.964,959.401z"/>
		</g>
	</g>
</g>
</svg>
