<?xml version="1.0" encoding="utf-8"?>
<!-- Generator: Adobe Illustrator 16.0.0, SVG Export Plug-In . SVG Version: 6.00 Build 0)  -->
<!DOCTYPE svg PUBLIC "-//W3C//DTD SVG 1.0//EN" "http://www.w3.org/TR/2001/REC-SVG-20010904/DTD/svg10.dtd">
<svg version="1.0" xmlns="http://www.w3.org/2000/svg" xmlns:xlink="http://www.w3.org/1999/xlink" x="0px" y="0px" width="1700px"
	 height="1410.968px" viewBox="0 0 1700 1410.968" enable-background="new 0 0 1700 1410.968" xml:space="preserve">
<g id="background">
	<g>
		<rect x="-27.274" y="-29.175" fill="#F15757" width="1776.105" height="1469.175"/>
		<polyline opacity="0.1" fill="#231F20" points="552.298,1211.363 728.864,1440 1748.831,1440 1748.831,888.156 1147.755,199.604 
					"/>
		<g>
			<g>
				<g>
					<rect x="552.329" y="199.604" fill="#314161" width="595.793" height="1012.264"/>
					<g>
						<rect x="552.23" y="199.604" fill="#040502" width="595.851" height="42.617"/>
						<g>
							<path fill="#C5C5C9" d="M1129.997,218.056v-1.88c0-1.905-1.546-3.446-3.443-3.446h-29.748c-1.896,0-3.442,1.541-3.442,3.446
								v12.787c0,1.901,1.546,3.439,3.442,3.439h29.748c1.897,0,3.443-1.538,3.443-3.439v-2.303c1.796-0.122,3.217-1.6,3.217-3.425
								v-1.759C1133.214,219.643,1131.793,218.169,1129.997,218.056z M1125.452,230.695h-27.684
								c-1.63,0.088-2.532-0.687-2.438-2.615v-10.765c0.023-1.793,0.643-2.649,2.438-2.621h27.684
								c1.873-0.028,2.453,0.873,2.432,2.621v10.765C1128.024,230.052,1127.081,230.626,1125.452,230.695z"/>
							<rect x="1103.272" y="215.923" fill="#FFFFFF" width="4.13" height="13.543"/>
							<rect x="1109.464" y="215.923" fill="#FFFFFF" width="4.127" height="13.543"/>
							<path fill="#FFFFFF" d="M1101.213,215.923h-2.104c-1.633-0.028-2.195,0.703-2.221,2.22v9.11
								c-0.083,1.634,0.734,2.29,2.221,2.213h2.104V215.923z"/>
						</g>
						<g>
							<path fill="#F1F1F2" d="M582.383,234.211v-9.836c0-1.282-1.185-2.327-2.65-2.327c-1.457,0-2.645,1.045-2.645,2.327v9.836
								H582.383z"/>
							<path fill="#F1F1F2" d="M590.192,234.211v-16.088c0-1.281-1.186-2.322-2.648-2.322c-1.467,0-2.648,1.041-2.648,2.322v16.088
								H590.192z"/>
							<path fill="#A8A7AC" d="M598.003,234.211v-22.076c0-1.293-1.187-2.33-2.646-2.33c-1.465,0-2.654,1.037-2.654,2.33v22.076
								H598.003z"/>
							<path fill="#F1F1F2" d="M574.162,234.211v-4.727c0-1.28-1.185-2.328-2.649-2.328c-1.466,0-2.651,1.048-2.651,2.328v4.727
								H574.162z"/>
						</g>
						<g>
							<path fill="#F1F1F2" d="M810.448,222.656c0,1.224-0.16,2.344-0.464,3.369c-0.312,1.029-0.745,1.918-1.298,2.664
								c-0.552,0.754-1.207,1.338-1.963,1.753c-0.756,0.416-1.575,0.624-2.453,0.624c-0.893,0-1.723-0.208-2.479-0.624
								c-0.755-0.415-1.41-0.999-1.949-1.753c-0.55-0.746-0.979-1.635-1.281-2.664c-0.313-1.025-0.465-2.146-0.465-3.369
								c0-1.219,0.152-2.347,0.465-3.372c0.303-1.024,0.731-1.917,1.281-2.665c0.539-0.749,1.194-1.334,1.949-1.762
								c0.756-0.426,1.586-0.642,2.479-0.642c0.878,0,1.697,0.216,2.453,0.642c0.756,0.428,1.411,1.013,1.963,1.762
								c0.553,0.748,0.986,1.641,1.298,2.665C810.288,220.31,810.448,221.438,810.448,222.656z M808.271,222.656
								c0-0.91-0.1-1.738-0.289-2.496c-0.2-0.759-0.472-1.415-0.832-1.954c-0.355-0.555-0.783-0.968-1.268-1.267
								c-0.488-0.294-1.022-0.444-1.612-0.444c-0.6,0-1.148,0.15-1.645,0.444c-0.501,0.299-0.924,0.712-1.271,1.267
								c-0.346,0.539-0.624,1.195-0.813,1.954c-0.202,0.758-0.299,1.586-0.299,2.496c0,0.924,0.097,1.762,0.299,2.513
								c0.189,0.748,0.468,1.389,0.813,1.928c0.348,0.535,0.771,0.952,1.271,1.251c0.496,0.296,1.045,0.446,1.645,0.446
								c0.59,0,1.124-0.15,1.612-0.446c0.484-0.299,0.912-0.716,1.268-1.251c0.36-0.539,0.632-1.18,0.832-1.928
								C808.172,224.418,808.271,223.58,808.271,222.656z"/>
							<path fill="#F1F1F2" d="M825.429,222.656c0,1.224-0.153,2.344-0.463,3.369c-0.309,1.029-0.743,1.918-1.293,2.664
								c-0.556,0.754-1.211,1.338-1.967,1.753c-0.756,0.416-1.574,0.624-2.453,0.624c-0.892,0-1.718-0.208-2.474-0.624
								c-0.758-0.415-1.405-0.999-1.954-1.753c-0.545-0.746-0.971-1.635-1.279-2.664c-0.313-1.025-0.463-2.146-0.463-3.369
								c0-1.219,0.15-2.347,0.463-3.372c0.309-1.024,0.734-1.917,1.279-2.665c0.549-0.749,1.196-1.334,1.954-1.762
								c0.756-0.426,1.582-0.642,2.474-0.642c0.879,0,1.697,0.216,2.453,0.642c0.756,0.428,1.411,1.013,1.967,1.762
								c0.55,0.748,0.984,1.641,1.293,2.665C825.275,220.31,825.429,221.438,825.429,222.656z M823.261,222.656
								c0-0.91-0.101-1.738-0.297-2.496c-0.194-0.759-0.467-1.415-0.828-1.954c-0.359-0.555-0.785-0.968-1.269-1.267
								c-0.489-0.294-1.026-0.444-1.614-0.444c-0.602,0-1.151,0.15-1.646,0.444c-0.496,0.299-0.916,0.712-1.269,1.267
								c-0.352,0.539-0.616,1.195-0.816,1.954c-0.195,0.758-0.294,1.586-0.294,2.496c0,0.924,0.099,1.762,0.294,2.513
								c0.2,0.748,0.465,1.389,0.816,1.928c0.353,0.535,0.772,0.952,1.269,1.251c0.495,0.296,1.045,0.446,1.646,0.446
								c0.588,0,1.125-0.15,1.614-0.446c0.483-0.299,0.909-0.716,1.269-1.251c0.361-0.539,0.634-1.18,0.828-1.928
								C823.16,224.418,823.261,223.58,823.261,222.656z"/>
							<path fill="#F1F1F2" d="M828.311,219.521v-3.107h1.778v3.107H828.311z M828.311,230.783v-3.103h1.778v3.103H828.311z"/>
							<path fill="#F1F1F2" d="M845.317,222.656c0,1.224-0.154,2.344-0.463,3.369c-0.305,1.029-0.738,1.918-1.288,2.664
								c-0.56,0.754-1.211,1.338-1.972,1.753c-0.754,0.416-1.573,0.624-2.451,0.624c-0.89,0-1.719-0.208-2.471-0.624
								c-0.761-0.415-1.411-0.999-1.954-1.753c-0.55-0.746-0.981-1.635-1.28-2.664c-0.314-1.025-0.465-2.146-0.465-3.369
								c0-1.219,0.15-2.347,0.465-3.372c0.299-1.024,0.73-1.917,1.28-2.665c0.543-0.749,1.193-1.334,1.954-1.762
								c0.752-0.426,1.581-0.642,2.471-0.642c0.878,0,1.697,0.216,2.451,0.642c0.761,0.428,1.412,1.013,1.972,1.762
								c0.55,0.748,0.983,1.641,1.288,2.665C845.163,220.31,845.317,221.438,845.317,222.656z M843.144,222.656
								c0-0.91-0.094-1.738-0.285-2.496c-0.201-0.759-0.473-1.415-0.832-1.954c-0.361-0.555-0.781-0.968-1.273-1.267
								c-0.482-0.294-1.02-0.444-1.609-0.444c-0.603,0-1.15,0.15-1.647,0.444c-0.497,0.299-0.917,0.712-1.265,1.267
								c-0.353,0.539-0.622,1.195-0.82,1.954c-0.197,0.758-0.295,1.586-0.295,2.496c0,0.924,0.098,1.762,0.295,2.513
								c0.198,0.748,0.468,1.389,0.82,1.928c0.348,0.535,0.768,0.952,1.265,1.251c0.497,0.296,1.045,0.446,1.647,0.446
								c0.59,0,1.127-0.15,1.609-0.446c0.492-0.299,0.912-0.716,1.273-1.251c0.359-0.539,0.631-1.18,0.832-1.928
								C843.05,224.418,843.144,223.58,843.144,222.656z"/>
							<path fill="#F1F1F2" d="M860.308,222.656c0,1.224-0.158,2.344-0.47,3.369c-0.309,1.029-0.739,1.918-1.291,2.664
								c-0.554,0.754-1.206,1.338-1.96,1.753c-0.76,0.416-1.577,0.624-2.457,0.624c-0.895,0-1.722-0.208-2.48-0.624
								c-0.752-0.415-1.401-0.999-1.949-1.753c-0.545-0.746-0.969-1.635-1.281-2.664c-0.309-1.025-0.465-2.146-0.465-3.369
								c0-1.219,0.156-2.347,0.465-3.372c0.313-1.024,0.736-1.917,1.281-2.665c0.548-0.749,1.197-1.334,1.949-1.762
								c0.759-0.426,1.586-0.642,2.48-0.642c0.88,0,1.697,0.216,2.457,0.642c0.754,0.428,1.406,1.013,1.96,1.762
								c0.552,0.748,0.982,1.641,1.291,2.665C860.149,220.31,860.308,221.438,860.308,222.656z M858.135,222.656
								c0-0.91-0.097-1.738-0.3-2.496c-0.191-0.759-0.469-1.415-0.824-1.954c-0.361-0.555-0.782-0.968-1.273-1.267
								c-0.489-0.294-1.021-0.444-1.607-0.444c-0.603,0-1.152,0.15-1.648,0.444c-0.493,0.299-0.921,0.712-1.27,1.267
								c-0.35,0.539-0.621,1.195-0.817,1.954c-0.194,0.758-0.293,1.586-0.293,2.496c0,0.924,0.099,1.762,0.293,2.513
								c0.196,0.748,0.468,1.389,0.817,1.928c0.349,0.535,0.776,0.952,1.27,1.251c0.496,0.296,1.046,0.446,1.648,0.446
								c0.586,0,1.118-0.15,1.607-0.446c0.491-0.299,0.912-0.716,1.273-1.251c0.355-0.539,0.633-1.18,0.824-1.928
								C858.038,224.418,858.135,223.58,858.135,222.656z"/>
							<path fill="#F1F1F2" d="M872.802,231.066c-0.603,0-1.163-0.116-1.685-0.346c-0.522-0.234-0.974-0.552-1.356-0.958
								c-0.383-0.407-0.68-0.885-0.904-1.43c-0.218-0.544-0.326-1.142-0.326-1.787c0-0.671,0.131-1.276,0.391-1.826
								c0.26-0.539,0.629-1.009,1.105-1.398c0.482-0.386,1.055-0.692,1.714-0.919c0.655-0.218,1.375-0.328,2.156-0.328
								c0.619,0,1.244,0.061,1.882,0.191c0.633,0.137,1.194,0.307,1.684,0.527v-1.162c0-1.183-0.293-2.114-0.878-2.792
								c-0.588-0.674-1.419-1.009-2.489-1.009c-1.287,0-2.635,0.568-4.051,1.69l-0.709-1.58c1.644-1.258,3.294-1.891,4.955-1.891
								c1.672,0,2.978,0.511,3.913,1.527c0.938,1.018,1.405,2.454,1.405,4.304v5.908c0,0.578,0.225,0.874,0.685,0.889v2.105
								c-0.231,0.043-0.419,0.067-0.566,0.086c-0.139,0.023-0.298,0.03-0.461,0.03c-0.421,0-0.758-0.144-1.011-0.431
								c-0.254-0.288-0.402-0.631-0.449-1.043l-0.054-1.025c-0.567,0.869-1.289,1.531-2.156,1.984
								C874.722,230.843,873.796,231.066,872.802,231.066z M873.359,229.232c0.765,0,1.48-0.163,2.136-0.48
								c0.663-0.328,1.16-0.761,1.505-1.295c0.306-0.352,0.462-0.711,0.462-1.082v-2.137c-1.043-0.462-2.125-0.69-3.246-0.69
								c-1.075,0-1.951,0.252-2.625,0.771s-1.011,1.193-1.011,2.025c0,0.411,0.069,0.789,0.206,1.141
								c0.138,0.351,0.331,0.658,0.585,0.915c0.258,0.263,0.551,0.461,0.892,0.612C872.602,229.163,872.975,229.232,873.359,229.232
								z"/>
							<path fill="#F1F1F2" d="M902.256,230.783h-2.146v-8.097c0-1.519-0.217-2.638-0.647-3.361
								c-0.433-0.724-1.07-1.078-1.917-1.078c-0.878,0-1.661,0.352-2.351,1.069c-0.696,0.707-1.19,1.63-1.48,2.758v8.709h-2.146
								v-8.097c0-1.556-0.213-2.688-0.637-3.388c-0.425-0.704-1.058-1.052-1.902-1.052c-0.862,0-1.645,0.343-2.346,1.037
								c-0.696,0.69-1.192,1.618-1.491,2.764v8.735h-2.145V216.3h1.953v3.107c0.521-1.07,1.193-1.899,2.023-2.479
								c0.836-0.586,1.769-0.878,2.809-0.878c1.072,0,1.925,0.331,2.553,0.986c0.625,0.655,1.01,1.503,1.155,2.538
								c1.142-2.349,2.761-3.524,4.858-3.524c0.731,0,1.345,0.155,1.84,0.457c0.499,0.307,0.893,0.738,1.19,1.279
								c0.288,0.546,0.498,1.188,0.631,1.927c0.13,0.74,0.195,1.544,0.195,2.42V230.783z"/>
						</g>
					</g>
				</g>
			</g>
			<rect x="554.723" y="829.196" fill="#485777" width="593.399" height="108.946"/>
			<g>
				<path fill="#FFFFFF" d="M621.098,782.972v-16.911l-7.513,13.082h-1.188l-7.515-13.082v16.911h-2.029v-20.595h2.091l8.032,14.096
					l8.097-14.096h2.055v20.595H621.098z"/>
				<path fill="#FFFFFF" d="M638.907,783.115c-1.43,0-2.74-0.293-3.934-0.882c-1.188-0.592-2.207-1.376-3.059-2.352
					c-0.85-0.974-1.506-2.091-1.971-3.349c-0.465-1.257-0.695-2.545-0.695-3.855c0-1.377,0.244-2.692,0.74-3.946
					c0.493-1.258,1.173-2.368,2.045-3.336c0.869-0.969,1.895-1.736,3.07-2.306c1.183-0.572,2.459-0.855,3.83-0.855
					c1.432,0,2.738,0.304,3.931,0.912c1.188,0.608,2.202,1.408,3.044,2.393c0.843,0.986,1.495,2.103,1.959,3.351
					c0.465,1.247,0.697,2.517,0.697,3.813c0,1.375-0.245,2.689-0.738,3.944c-0.496,1.257-1.172,2.366-2.03,3.323
					c-0.862,0.956-1.884,1.72-3.063,2.288C641.556,782.83,640.279,783.115,638.907,783.115z M631.278,772.678
					c0,1.119,0.184,2.197,0.552,3.231c0.366,1.036,0.89,1.951,1.566,2.755c0.678,0.805,1.476,1.438,2.406,1.916
					c0.929,0.473,1.961,0.71,3.104,0.71c1.16,0,2.213-0.253,3.161-0.756c0.947-0.501,1.751-1.159,2.405-1.972
					c0.659-0.811,1.166-1.729,1.521-2.756c0.361-1.027,0.541-2.068,0.541-3.129c0-1.124-0.191-2.201-0.567-3.235
					c-0.376-1.035-0.903-1.948-1.581-2.74c-0.676-0.792-1.479-1.426-2.404-1.9c-0.93-0.476-1.957-0.714-3.076-0.714
					c-1.164,0-2.216,0.249-3.163,0.74c-0.945,0.496-1.75,1.147-2.405,1.96c-0.66,0.813-1.166,1.731-1.521,2.753
					C631.453,770.567,631.278,771.613,631.278,772.678z"/>
				<path fill="#FFFFFF" d="M656.743,766.146v16.825h-2.03v-20.595h1.564l13.632,17.142V762.41h2.027v20.562h-1.766L656.743,766.146
					z"/>
				<path fill="#FFFFFF" d="M679.422,782.972v-20.595h6.987c1.647,0,3.083,0.273,4.307,0.813c1.231,0.541,2.257,1.276,3.077,2.206
					c0.821,0.927,1.441,2.017,1.858,3.264c0.414,1.245,0.623,2.575,0.623,3.985c0,1.566-0.231,2.986-0.697,4.251
					c-0.465,1.267-1.128,2.351-1.986,3.249c-0.862,0.899-1.896,1.591-3.106,2.089c-1.204,0.49-2.564,0.738-4.075,0.738H679.422z
					 M694.243,772.645c0-1.238-0.172-2.371-0.521-3.406c-0.349-1.033-0.858-1.928-1.521-2.683c-0.67-0.752-1.484-1.339-2.455-1.754
					c-0.963-0.417-2.078-0.626-3.336-0.626h-4.955v16.996h4.955c1.281,0,2.405-0.217,3.38-0.651
					c0.978-0.435,1.794-1.035,2.452-1.799c0.656-0.764,1.155-1.663,1.493-2.695C694.071,774.99,694.243,773.866,694.243,772.645z"/>
				<path fill="#FFFFFF" d="M708.135,762.377h1.712l8.555,20.595h-2.146l-2.667-6.438h-9.25l-2.643,6.438h-2.173L708.135,762.377z
					 M713.125,774.939l-4.151-10.184l-4.203,10.184H713.125z"/>
				<path fill="#FFFFFF" d="M721.39,762.377l6.727,11.08l6.789-11.08h2.204l-7.975,12.938v7.656h-2.032v-7.716l-7.945-12.879H721.39
					z"/>
			</g>
			<g>
				<path fill="#FFFFFF" d="M610.599,980.884h1.913l2.903,7.311l2.929-7.311h1.939l-3.593,8.792l3.942,9.309l7.456-18.248h2.205
					l-8.731,20.597h-1.798l-4.318-10.183l-4.355,10.183h-1.768l-8.697-20.597h2.174l7.482,18.248l3.912-9.309L610.599,980.884z"/>
				<path fill="#FFFFFF" d="M649.346,999.535v1.798h-13.833v-20.597h13.572v1.801h-11.542v7.43h10.065v1.702h-10.065v7.866H649.346z
					"/>
				<path fill="#FFFFFF" d="M655.496,1001.333v-20.597h6.988c1.646,0,3.084,0.277,4.306,0.816c1.23,0.539,2.258,1.274,3.078,2.201
					c0.817,0.928,1.441,2.019,1.856,3.264c0.414,1.246,0.622,2.576,0.622,3.986c0,1.567-0.231,2.988-0.695,4.251
					c-0.466,1.267-1.13,2.353-1.986,3.251c-0.86,0.899-1.897,1.593-3.104,2.088c-1.206,0.494-2.565,0.739-4.077,0.739H655.496z
					 M670.317,991.004c0-1.234-0.175-2.369-0.522-3.401c-0.352-1.038-0.856-1.933-1.521-2.688c-0.669-0.751-1.484-1.336-2.453-1.752
					c-0.966-0.416-2.078-0.625-3.337-0.625h-4.956v16.998h4.956c1.278,0,2.405-0.221,3.38-0.653
					c0.978-0.433,1.795-1.037,2.451-1.797c0.654-0.768,1.153-1.667,1.494-2.699C670.146,993.353,670.317,992.225,670.317,991.004z"
					/>
				<path fill="#FFFFFF" d="M680.584,984.511v16.822h-2.032v-20.597h1.568l13.632,17.146v-17.113h2.03v20.564h-1.771
					L680.584,984.511z"/>
				<path fill="#FFFFFF" d="M717.097,999.535v1.798h-13.836v-20.597h13.574v1.801H705.29v7.43h10.067v1.702H705.29v7.866H717.097z"
					/>
				<path fill="#FFFFFF" d="M734.846,984.6c-0.577-0.656-1.352-1.192-2.32-1.597c-0.963-0.409-2.067-0.612-3.308-0.612
					c-1.814,0-3.139,0.347-3.973,1.033c-0.83,0.686-1.245,1.617-1.245,2.797c0,0.617,0.11,1.128,0.334,1.523
					c0.22,0.397,0.562,0.739,1.026,1.03c0.466,0.289,1.061,0.543,1.783,0.755c0.727,0.213,1.58,0.425,2.569,0.634
					c1.104,0.236,2.095,0.493,2.973,0.783s1.63,0.657,2.247,1.091c0.623,0.438,1.093,0.964,1.421,1.581
					c0.329,0.616,0.491,1.392,0.491,2.319c0,0.947-0.18,1.772-0.545,2.467c-0.371,0.699-0.883,1.273-1.54,1.735
					c-0.657,0.47-1.44,0.813-2.353,1.033c-0.908,0.221-1.902,0.331-2.985,0.331c-3.189,0-5.946-0.988-8.267-2.985l1.016-1.653
					c0.366,0.387,0.807,0.756,1.322,1.102c0.51,0.352,1.082,0.654,1.711,0.915c0.628,0.257,1.298,0.461,2.018,0.608
					c0.71,0.144,1.47,0.217,2.262,0.217c1.643,0,2.922-0.295,3.842-0.882c0.914-0.589,1.373-1.487,1.373-2.684
					c0-0.642-0.13-1.181-0.389-1.613c-0.26-0.433-0.653-0.809-1.174-1.127c-0.521-0.318-1.17-0.597-1.945-0.83
					c-0.771-0.229-1.672-0.461-2.695-0.693c-1.084-0.254-2.029-0.515-2.84-0.784c-0.814-0.266-1.501-0.609-2.062-1.014
					c-0.562-0.404-0.979-0.895-1.261-1.465c-0.28-0.572-0.424-1.275-0.424-2.1c0-0.951,0.181-1.798,0.539-2.541
					c0.356-0.743,0.862-1.363,1.522-1.861c0.657-0.486,1.431-0.866,2.321-1.123c0.888-0.267,1.873-0.397,2.959-0.397
					c1.372,0,2.594,0.209,3.668,0.626c1.074,0.416,2.042,1,2.916,1.756L734.846,984.6z"/>
				<path fill="#FFFFFF" d="M742.734,1001.333v-20.597h6.991c1.643,0,3.078,0.277,4.307,0.816c1.23,0.539,2.252,1.274,3.074,2.201
					c0.82,0.928,1.439,2.019,1.858,3.264c0.413,1.246,0.621,2.576,0.621,3.986c0,1.567-0.229,2.988-0.694,4.251
					c-0.463,1.267-1.13,2.353-1.99,3.251c-0.861,0.899-1.893,1.593-3.104,2.088c-1.206,0.494-2.563,0.739-4.072,0.739H742.734z
					 M757.557,991.004c0-1.234-0.175-2.369-0.523-3.401c-0.35-1.038-0.856-1.933-1.521-2.688c-0.667-0.751-1.484-1.336-2.452-1.752
					c-0.965-0.416-2.078-0.625-3.334-0.625h-4.961v16.998h4.961c1.277,0,2.4-0.221,3.377-0.653c0.978-0.433,1.799-1.037,2.453-1.797
					c0.656-0.768,1.154-1.667,1.489-2.699C757.388,993.353,757.557,992.225,757.557,991.004z"/>
				<path fill="#FFFFFF" d="M771.45,980.736h1.709l8.559,20.597h-2.146l-2.673-6.441h-9.249l-2.641,6.441h-2.172L771.45,980.736z
					 M776.435,993.299l-4.144-10.182l-4.209,10.182H776.435z"/>
				<path fill="#FFFFFF" d="M784.706,980.736l6.725,11.084l6.788-11.084h2.201l-7.975,12.938v7.658h-2.025v-7.715l-7.95-12.882
					H784.706z"/>
			</g>
			<g>
				<path fill="#EC8B6A" d="M617.477,873.935h-7.343v18.794h-2.031v-18.794h-7.335v-1.798h16.709V873.935z"/>
				<path fill="#EC8B6A" d="M631.801,891.046c1.294,0,2.375-0.245,3.235-0.739c0.855-0.494,1.547-1.14,2.058-1.944
					c0.515-0.8,0.87-1.715,1.074-2.74c0.2-1.025,0.303-2.058,0.303-3.099v-10.387h2.03v10.387c0,1.388-0.156,2.707-0.463,3.957
					c-0.311,1.245-0.811,2.34-1.494,3.287c-0.686,0.952-1.578,1.703-2.684,2.263c-1.103,0.563-2.447,0.846-4.03,0.846
					c-1.626,0-2.994-0.295-4.104-0.887c-1.111-0.592-2.006-1.373-2.684-2.332c-0.676-0.972-1.16-2.075-1.45-3.309
					c-0.289-1.237-0.437-2.511-0.437-3.825v-10.387h2.002v10.387c0,1.082,0.107,2.131,0.319,3.16
					c0.215,1.025,0.578,1.932,1.091,2.729c0.508,0.792,1.19,1.426,2.043,1.91C629.459,890.805,630.524,891.046,631.801,891.046z"/>
				<path fill="#EC8B6A" d="M662.08,890.932v1.797h-13.837v-20.592h13.58v1.798h-11.549v7.424h10.063v1.712h-10.063v7.861H662.08z"
					/>
				<path fill="#EC8B6A" d="M680.407,875.996c-0.579-0.662-1.354-1.192-2.317-1.601c-0.972-0.404-2.071-0.604-3.309-0.604
					c-1.817,0-3.144,0.347-3.974,1.024c-0.834,0.69-1.247,1.626-1.247,2.802c0,0.621,0.112,1.127,0.333,1.524
					c0.224,0.396,0.566,0.739,1.032,1.028c0.462,0.294,1.06,0.539,1.785,0.752c0.725,0.216,1.576,0.428,2.563,0.641
					c1.102,0.229,2.091,0.49,2.974,0.78c0.884,0.294,1.627,0.653,2.248,1.087c0.617,0.437,1.093,0.967,1.424,1.584
					c0.326,0.621,0.492,1.393,0.492,2.324c0,0.943-0.185,1.764-0.556,2.463c-0.364,0.697-0.876,1.273-1.536,1.739
					c-0.658,0.466-1.441,0.806-2.346,1.025c-0.909,0.229-1.908,0.339-2.988,0.339c-3.191,0-5.946-0.997-8.266-2.986l1.016-1.657
					c0.367,0.388,0.806,0.756,1.318,1.107c0.512,0.347,1.082,0.648,1.71,0.909c0.628,0.258,1.302,0.467,2.017,0.608
					c0.715,0.147,1.466,0.218,2.263,0.218c1.642,0,2.924-0.29,3.84-0.883c0.922-0.588,1.381-1.486,1.381-2.687
					c0-0.638-0.128-1.173-0.394-1.605c-0.259-0.437-0.65-0.809-1.172-1.136c-0.525-0.314-1.172-0.592-1.944-0.824
					c-0.774-0.225-1.67-0.463-2.697-0.694c-1.082-0.249-2.032-0.512-2.843-0.785c-0.814-0.27-1.499-0.608-2.061-1.013
					c-0.559-0.408-0.981-0.898-1.262-1.466c-0.282-0.567-0.417-1.27-0.417-2.104c0-0.947,0.178-1.793,0.532-2.536
					c0.358-0.743,0.869-1.364,1.525-1.857c0.654-0.495,1.43-0.87,2.321-1.133c0.886-0.256,1.875-0.387,2.955-0.387
					c1.375,0,2.599,0.207,3.674,0.62c1.069,0.417,2.042,1.005,2.912,1.756L680.407,875.996z"/>
				<path fill="#EC8B6A" d="M688.878,892.729v-20.592h6.986c1.649,0,3.082,0.273,4.308,0.813c1.229,0.539,2.255,1.274,3.074,2.205
					c0.821,0.928,1.443,2.014,1.86,3.26c0.411,1.25,0.622,2.577,0.622,3.99c0,1.564-0.233,2.98-0.698,4.248
					c-0.464,1.27-1.125,2.352-1.986,3.25c-0.862,0.898-1.895,1.589-3.102,2.087c-1.207,0.495-2.568,0.739-4.078,0.739H688.878z
					 M703.696,882.404c0-1.237-0.172-2.373-0.521-3.41c-0.348-1.029-0.858-1.924-1.521-2.684c-0.672-0.748-1.482-1.336-2.453-1.752
					c-0.964-0.417-2.08-0.624-3.337-0.624h-4.955v16.997h4.955c1.277,0,2.405-0.216,3.381-0.654c0.977-0.436,1.793-1.037,2.451-1.8
					c0.654-0.765,1.154-1.663,1.495-2.692C703.528,884.748,703.696,883.625,703.696,882.404z"/>
				<path fill="#EC8B6A" d="M718.171,872.137h1.707l8.561,20.592h-2.146l-2.668-6.441h-9.256l-2.638,6.441h-2.172L718.171,872.137z
					 M723.158,884.699l-4.147-10.186l-4.205,10.186H723.158z"/>
				<path fill="#EC8B6A" d="M732.006,872.137l6.729,11.08l6.785-11.08h2.201l-7.974,12.934v7.658h-2.028v-7.715l-7.948-12.877
					H732.006z"/>
			</g>
			<g>
				<g>
					<path fill="#FFFFFF" d="M617.477,1086.518h-7.343v18.796h-2.031v-18.796h-7.335v-1.797h16.709V1086.518z"/>
					<path fill="#FFFFFF" d="M639.11,1084.721v20.593h-2.002v-9.627h-12.21v9.627h-2.03v-20.593h2.03v9.17h12.21v-9.17H639.11z"/>
					<path fill="#FFFFFF" d="M654.942,1103.635c1.297,0,2.373-0.249,3.235-0.743c0.862-0.495,1.544-1.14,2.056-1.944
						c0.516-0.801,0.874-1.715,1.074-2.74c0.204-1.021,0.308-2.059,0.308-3.1v-10.387h2.032v10.387c0,1.388-0.158,2.711-0.466,3.957
						c-0.31,1.246-0.808,2.344-1.493,3.291c-0.687,0.948-1.585,1.699-2.685,2.259c-1.101,0.564-2.45,0.847-4.034,0.847
						c-1.617,0-2.99-0.295-4.101-0.883c-1.114-0.597-2.005-1.373-2.684-2.336c-0.676-0.969-1.157-2.075-1.452-3.309
						c-0.287-1.237-0.43-2.512-0.43-3.826v-10.387h1.999v10.387c0,1.082,0.106,2.135,0.317,3.16
						c0.212,1.025,0.574,1.937,1.088,2.729c0.512,0.792,1.196,1.429,2.043,1.91C652.605,1103.39,653.665,1103.635,654.942,1103.635z
						"/>
					<path fill="#FFFFFF" d="M670.808,1105.313v-20.593h8.703c0.89,0,1.703,0.191,2.448,0.568c0.745,0.375,1.39,0.865,1.929,1.482
						c0.543,0.604,0.961,1.299,1.264,2.07c0.303,0.772,0.449,1.556,0.449,2.349c0,0.756-0.115,1.475-0.331,2.16
						c-0.226,0.687-0.536,1.308-0.932,1.854c-0.396,0.552-0.876,1.018-1.437,1.397c-0.557,0.371-1.189,0.629-1.886,0.764
						l5.051,7.948h-2.296l-4.84-7.597h-6.091v7.597H670.808z M672.84,1095.92h6.728c0.602,0,1.149-0.131,1.639-0.393
						c0.494-0.261,0.915-0.612,1.262-1.063c0.346-0.439,0.621-0.947,0.812-1.506c0.193-0.559,0.294-1.147,0.294-1.769
						c0-0.617-0.117-1.213-0.335-1.784c-0.227-0.568-0.523-1.066-0.905-1.491c-0.374-0.43-0.816-0.769-1.331-1.013
						c-0.513-0.257-1.046-0.385-1.605-0.385h-6.557V1095.92z"/>
					<path fill="#FFFFFF" d="M704.101,1088.58c-0.576-0.656-1.354-1.191-2.314-1.596c-0.968-0.408-2.075-0.608-3.312-0.608
						c-1.819,0-3.142,0.347-3.971,1.028c-0.834,0.687-1.248,1.621-1.248,2.802c0,0.616,0.113,1.123,0.331,1.523
						c0.227,0.393,0.567,0.735,1.032,1.025c0.467,0.294,1.06,0.543,1.784,0.755c0.727,0.217,1.58,0.43,2.564,0.642
						c1.104,0.229,2.095,0.485,2.973,0.776c0.883,0.293,1.63,0.653,2.251,1.086c0.617,0.445,1.093,0.968,1.421,1.589
						c0.326,0.617,0.491,1.389,0.491,2.319c0,0.947-0.185,1.765-0.548,2.463c-0.368,0.699-0.88,1.274-1.54,1.74
						c-0.656,0.465-1.438,0.809-2.349,1.028c-0.908,0.226-1.908,0.336-2.988,0.336c-3.19,0-5.945-0.993-8.263-2.985l1.013-1.654
						c0.367,0.383,0.805,0.752,1.318,1.102c0.514,0.348,1.087,0.65,1.713,0.911c0.628,0.258,1.302,0.466,2.017,0.608
						c0.714,0.147,1.47,0.217,2.263,0.217c1.646,0,2.921-0.29,3.844-0.882c0.916-0.589,1.375-1.487,1.375-2.684
						c0-0.637-0.131-1.176-0.39-1.608c-0.259-0.438-0.655-0.809-1.177-1.137c-0.525-0.313-1.169-0.592-1.941-0.824
						c-0.775-0.225-1.674-0.458-2.699-0.694c-1.08-0.25-2.03-0.511-2.841-0.784c-0.815-0.266-1.501-0.609-2.061-1.014
						c-0.562-0.404-0.982-0.894-1.263-1.465c-0.281-0.568-0.42-1.271-0.42-2.1c0-0.951,0.181-1.794,0.535-2.54
						c0.359-0.743,0.865-1.364,1.523-1.858c0.661-0.49,1.432-0.87,2.323-1.127c0.891-0.263,1.873-0.393,2.958-0.393
						c1.37,0,2.593,0.208,3.668,0.621c1.071,0.421,2.043,1.004,2.916,1.756L704.101,1088.58z"/>
					<path fill="#FFFFFF" d="M711.992,1105.313v-20.593h6.991c1.64,0,3.076,0.273,4.305,0.817c1.23,0.534,2.25,1.27,3.076,2.201
						c0.822,0.928,1.437,2.014,1.854,3.264c0.417,1.245,0.623,2.576,0.623,3.985c0,1.564-0.231,2.986-0.692,4.248
						c-0.461,1.27-1.127,2.352-1.987,3.254c-0.861,0.896-1.894,1.589-3.104,2.088c-1.211,0.494-2.567,0.735-4.074,0.735H711.992z
						 M726.81,1094.988c0-1.236-0.169-2.373-0.518-3.405c-0.351-1.034-0.855-1.929-1.525-2.688
						c-0.663-0.748-1.484-1.332-2.448-1.752c-0.97-0.417-2.076-0.626-3.335-0.626h-4.963v16.998h4.963
						c1.274,0,2.399-0.215,3.378-0.653c0.976-0.433,1.793-1.037,2.45-1.796c0.66-0.769,1.155-1.664,1.492-2.696
						C726.641,1097.333,726.81,1096.21,726.81,1094.988z"/>
					<path fill="#FFFFFF" d="M740.707,1084.721h1.708l8.56,20.593h-2.145l-2.675-6.441h-9.246l-2.641,6.441h-2.175L740.707,1084.721
						z M745.694,1097.283l-4.146-10.186l-4.207,10.186H745.694z"/>
					<path fill="#FFFFFF" d="M753.958,1084.721l6.731,11.085l6.788-11.085h2.201l-7.978,12.935v7.658h-2.026v-7.711l-7.946-12.882
						H753.958z"/>
				</g>
			</g>
			<g>
				<path fill="#FFFFFF" d="M984.918,1090.975h-0.057l-3.279,1.768l-0.492-1.94l4.118-2.204h2.176v18.852h-2.466V1090.975z"/>
				<path fill="#FFFFFF" d="M1001.418,1107.764c-3.679,0-6.202-3.447-6.261-9.684c0-6.351,2.756-9.802,6.584-9.802
					c3.943,0,6.234,3.537,6.234,9.54c0,6.408-2.406,9.945-6.527,9.945H1001.418z M1001.537,1105.795
					c2.583,0,3.825-3.047,3.825-7.861c0-4.636-1.157-7.683-3.825-7.683c-2.318,0-3.83,2.957-3.83,7.683
					c-0.053,4.9,1.453,7.861,3.801,7.861H1001.537z"/>
				<path fill="#FFFFFF" d="M1016.037,1087.58c2.377,0,3.798,1.801,3.798,3.773c0,2.32-1.883,3.855-3.883,3.855
					c-2.264,0-3.801-1.711-3.801-3.741c0-2.205,1.709-3.888,3.857-3.888H1016.037z M1015.98,1088.944
					c-1.478,0-2.234,1.307-2.234,2.523c0,1.337,0.955,2.378,2.263,2.378c1.335,0,2.286-1.041,2.286-2.463
					c0-1.075-0.633-2.438-2.286-2.438H1015.98z"/>
			</g>
			<g>
				<path fill="#FFFFFF" d="M984.918,765.166h-0.057l-3.279,1.769l-0.492-1.941l4.118-2.203h2.176v18.848h-2.466V765.166z"/>
				<path fill="#FFFFFF" d="M995.416,781.638v-1.564l2.004-1.946c4.813-4.58,7.017-7.016,7.017-9.856
					c0-1.913-0.899-3.684-3.71-3.684c-1.714,0-3.136,0.872-4.003,1.596l-0.814-1.798c1.28-1.072,3.164-1.914,5.34-1.914
					c4.028,0,5.741,2.781,5.741,5.477c0,3.484-2.523,6.293-6.497,10.123l-1.48,1.395v0.057h8.441v2.116H995.416z"/>
				<path fill="#FFFFFF" d="M1014.88,761.772c2.374,0,3.797,1.798,3.797,3.771c0,2.321-1.882,3.859-3.885,3.859
					c-2.263,0-3.803-1.712-3.803-3.742c0-2.205,1.714-3.888,3.859-3.888H1014.88z M1014.817,763.136
					c-1.478,0-2.231,1.308-2.231,2.524c0,1.332,0.958,2.378,2.263,2.378c1.332,0,2.289-1.046,2.289-2.464
					c0-1.074-0.639-2.438-2.289-2.438H1014.817z"/>
			</g>
			<g>
				<path fill="#EC8B6A" d="M984.918,873.77h-0.057l-3.279,1.765l-0.492-1.938l4.118-2.203h2.176v18.85h-2.466V873.77z"/>
				<path fill="#EC8B6A" d="M1005.506,873.533h-7.19l-0.725,4.787c0.438-0.057,0.841-0.115,1.539-0.115
					c1.479,0,2.896,0.319,4.061,1.018c1.477,0.813,2.695,2.462,2.695,4.9c0,3.681-2.928,6.433-7.017,6.433
					c-2.058,0-3.771-0.576-4.698-1.156l0.637-1.943c0.784,0.466,2.322,1.046,4.062,1.046c2.38,0,4.464-1.564,4.438-4.121
					c0-2.492-1.654-4.203-5.395-4.203c-1.102,0-1.941,0.086-2.64,0.205l1.217-8.99h9.016V873.533z"/>
				<path fill="#EC8B6A" d="M1013.718,870.374c2.379,0,3.801,1.796,3.801,3.772c0,2.318-1.888,3.859-3.892,3.859
					c-2.263,0-3.796-1.711-3.796-3.741c0-2.205,1.712-3.891,3.857-3.891H1013.718z M1013.659,871.736
					c-1.479,0-2.232,1.312-2.232,2.528c0,1.331,0.957,2.378,2.262,2.378c1.334,0,2.292-1.047,2.292-2.469
					c0-1.073-0.64-2.438-2.292-2.438H1013.659z"/>
			</g>
			<g>
				<path fill="#FFFFFF" d="M984.918,983.526h-0.057l-3.279,1.772l-0.492-1.944l4.118-2.206h2.176v18.849h-2.466V983.526z"/>
				<path fill="#FFFFFF" d="M994.259,999.997v-1.561l2-1.943c4.813-4.583,7.02-7.021,7.02-9.863c0-1.912-0.902-3.684-3.71-3.684
					c-1.714,0-3.138,0.874-4.009,1.597l-0.809-1.797c1.273-1.075,3.162-1.912,5.336-1.912c4.033,0,5.742,2.777,5.742,5.478
					c0,3.479-2.521,6.29-6.496,10.119l-1.479,1.395v0.061h8.438v2.111H994.259z"/>
				<path fill="#FFFFFF" d="M1013.718,980.137c2.379,0,3.801,1.797,3.801,3.766c0,2.323-1.888,3.859-3.892,3.859
					c-2.263,0-3.796-1.712-3.796-3.742c0-2.205,1.712-3.883,3.857-3.883H1013.718z M1013.659,981.5c-1.479,0-2.232,1.303-2.232,2.52
					c0,1.332,0.957,2.377,2.262,2.377c1.334,0,2.292-1.045,2.292-2.462c0-1.071-0.64-2.435-2.292-2.435H1013.659z"/>
			</g>
			<g>
				
					<line fill="none" stroke="#151E2F" stroke-width="1.4588" stroke-miterlimit="10" x1="556.225" y1="935.963" x2="1148.77" y2="935.963"/>
				
					<line fill="none" stroke="#151E2F" stroke-width="1.4588" stroke-miterlimit="10" x1="556.225" y1="1043.623" x2="1148.77" y2="1043.623"/>
			</g>
			<g>
				
					<line fill="none" stroke="#151E2F" stroke-width="1.4588" stroke-miterlimit="10" x1="556.225" y1="1042.725" x2="1148.77" y2="1042.725"/>
				
					<line fill="none" stroke="#151E2F" stroke-width="1.4588" stroke-miterlimit="10" x1="556.225" y1="1150.393" x2="1148.77" y2="1150.393"/>
			</g>
			<rect x="551.903" y="391.229" fill="#EC8B6A" width="596.219" height="321.58"/>
			<polygon fill="#E35547" points="1148.122,242.734 552,242.734 552,426.825 824.745,426.825 850.888,455.291 875.768,426.825 
				1148.122,426.825 			"/>
			<g>
				<g>
					<path fill="#FFFFFF" d="M721.051,347.306v-17.068l-7.05,12.926h-2.068l-7.08-12.926v17.068h-3.74v-23.718h4.008l7.848,14.499
						l7.849-14.499h4.012v23.718H721.051z"/>
					<path fill="#FFFFFF" d="M743.365,347.473c-1.695,0-3.236-0.339-4.627-1.019c-1.394-0.678-2.589-1.582-3.589-2.706
						c-1.006-1.124-1.777-2.408-2.322-3.859c-0.55-1.445-0.821-2.926-0.821-4.438c0-1.583,0.29-3.098,0.867-4.544
						c0.581-1.45,1.377-2.729,2.394-3.841c1.012-1.115,2.213-2,3.605-2.656c1.392-0.656,2.91-0.986,4.559-0.986
						c1.692,0,3.234,0.351,4.625,1.052c1.395,0.702,2.586,1.619,3.576,2.758c0.99,1.134,1.758,2.42,2.303,3.855
						c0.548,1.44,0.821,2.901,0.821,4.392c0,1.582-0.284,3.097-0.854,4.546c-0.567,1.447-1.361,2.721-2.387,3.823
						c-1.025,1.104-2.236,1.981-3.625,2.64C746.498,347.145,744.99,347.473,743.365,347.473z M735.814,335.45
						c0,1.112,0.177,2.191,0.535,3.24c0.356,1.046,0.865,1.969,1.523,2.77c0.653,0.8,1.451,1.445,2.384,1.923
						c0.936,0.479,1.981,0.717,3.142,0.717c1.202,0,2.264-0.251,3.188-0.753c0.924-0.501,1.711-1.16,2.36-1.987
						c0.64-0.823,1.132-1.748,1.468-2.772c0.332-1.023,0.5-2.071,0.5-3.137c0-1.14-0.179-2.222-0.533-3.257
						c-0.357-1.038-0.865-1.951-1.523-2.742c-0.659-0.791-1.445-1.422-2.371-1.906c-0.924-0.478-1.951-0.717-3.089-0.717
						c-1.201,0-2.273,0.254-3.206,0.754c-0.934,0.502-1.726,1.151-2.373,1.954c-0.645,0.8-1.142,1.719-1.486,2.755
						C735.987,333.326,735.814,334.38,735.814,335.45z"/>
					<path fill="#FFFFFF" d="M765.714,330.605v16.7h-3.741v-23.718h2.937l13.562,17.104v-17.066h3.775v23.681h-3.105
						L765.714,330.605z"/>
					<path fill="#FFFFFF" d="M808.337,326.896h-7.887v20.41h-3.772v-20.41h-7.919v-3.308h19.578V326.896z"/>
					<path fill="#FFFFFF" d="M831.114,343.998v3.308h-16.264v-23.718h15.963v3.308h-12.221v6.749h10.586v3.106h-10.586v7.247
						H831.114z"/>
					<path fill="#FFFFFF" d="M839.833,323.588l7.148,19.009l7.114-19.009h3.976l-9.483,23.718h-3.207l-9.523-23.718H839.833z"/>
					<path fill="#FFFFFF" d="M864.32,347.306v-23.718h3.741v23.718H864.32z"/>
					<path fill="#FFFFFF" d="M876.743,347.306v-23.718h8.416c1.919,0,3.594,0.313,5.033,0.937c1.436,0.624,2.637,1.471,3.604,2.541
						c0.969,1.066,1.699,2.321,2.188,3.755c0.488,1.438,0.735,2.967,0.735,4.595c0,1.805-0.271,3.435-0.819,4.896
						c-0.545,1.455-1.318,2.703-2.317,3.739c-1.005,1.034-2.22,1.837-3.644,2.404c-1.426,0.568-3.02,0.852-4.779,0.852H876.743z
						 M892.909,335.415c0-1.248-0.168-2.394-0.518-3.443c-0.343-1.045-0.852-1.938-1.517-2.687c-0.671-0.747-1.485-1.332-2.44-1.756
						c-0.958-0.421-2.046-0.634-3.275-0.634h-4.677v17.103h4.677c1.251,0,2.358-0.215,3.326-0.651
						c0.968-0.433,1.781-1.033,2.437-1.803c0.657-0.771,1.155-1.675,1.491-2.723C892.745,337.776,892.909,336.638,892.909,335.415z"
						/>
					<path fill="#FFFFFF" d="M920.27,343.998v3.308h-16.271v-23.718h15.971v3.308h-12.229v6.749h10.589v3.106h-10.589v7.247H920.27z
						"/>
					<path fill="#FFFFFF" d="M936.841,347.473c-1.695,0-3.237-0.339-4.629-1.019c-1.395-0.678-2.59-1.582-3.592-2.706
						c-1-1.124-1.775-2.408-2.322-3.859c-0.546-1.445-0.821-2.926-0.821-4.438c0-1.583,0.292-3.098,0.87-4.544
						c0.582-1.45,1.376-2.729,2.391-3.841c1.014-1.115,2.217-2,3.609-2.656c1.388-0.656,2.908-0.986,4.56-0.986
						c1.69,0,3.233,0.351,4.622,1.052c1.396,0.702,2.584,1.619,3.576,2.758c0.987,1.134,1.76,2.42,2.305,3.855
						c0.542,1.44,0.815,2.901,0.815,4.392c0,1.582-0.279,3.097-0.847,4.546c-0.566,1.447-1.368,2.721-2.39,3.823
						c-1.025,1.104-2.236,1.981-3.622,2.64C939.971,347.145,938.464,347.473,936.841,347.473z M929.285,335.45
						c0,1.112,0.178,2.191,0.537,3.24c0.355,1.046,0.863,1.969,1.521,2.77c0.656,0.8,1.452,1.445,2.387,1.923
						c0.937,0.479,1.981,0.717,3.142,0.717c1.202,0,2.267-0.251,3.188-0.753c0.922-0.501,1.709-1.16,2.357-1.987
						c0.644-0.823,1.135-1.748,1.471-2.772c0.331-1.023,0.498-2.071,0.498-3.137c0-1.14-0.178-2.222-0.532-3.257
						c-0.356-1.038-0.864-1.951-1.521-2.742c-0.661-0.791-1.446-1.422-2.373-1.906c-0.926-0.478-1.951-0.717-3.089-0.717
						c-1.2,0-2.274,0.254-3.208,0.754c-0.934,0.502-1.725,1.151-2.371,1.954c-0.646,0.8-1.144,1.719-1.486,2.755
						C929.459,333.326,929.285,334.38,929.285,335.45z"/>
					<path fill="#FFFFFF" d="M954.539,350.547l0.802-3.443h-1.201v-4.071h3.307v4.071l-1.17,3.443H954.539z"/>
					<path fill="#FFFFFF" d="M986.978,344.1c1.245,0,2.28-0.245,3.105-0.734c0.821-0.488,1.486-1.132,1.988-1.923
						c0.502-0.787,0.858-1.69,1.071-2.705c0.212-1.011,0.317-2.054,0.317-3.123v-12.026h3.771v12.026
						c0,1.626-0.191,3.157-0.566,4.594c-0.381,1.439-0.981,2.697-1.804,3.775c-0.825,1.081-1.89,1.932-3.189,2.553
						c-1.303,0.628-2.869,0.937-4.694,0.937c-1.894,0-3.492-0.328-4.793-0.984c-1.305-0.658-2.356-1.536-3.156-2.64
						c-0.804-1.103-1.381-2.367-1.741-3.792c-0.355-1.425-0.532-2.906-0.532-4.442v-12.026h3.742v12.026
						c0,1.093,0.104,2.145,0.315,3.157c0.212,1.014,0.569,1.914,1.069,2.706c0.503,0.791,1.171,1.428,2.006,1.905
						C984.722,343.861,985.752,344.1,986.978,344.1z"/>
					<path fill="#FFFFFF" d="M1019.575,329.166c-0.222-0.24-0.543-0.506-0.967-0.782c-0.425-0.279-0.922-0.541-1.487-0.786
						c-0.567-0.246-1.194-0.445-1.868-0.6c-0.681-0.155-1.379-0.233-2.091-0.233c-1.583,0-2.743,0.287-3.488,0.866
						c-0.748,0.58-1.121,1.383-1.121,2.405c0,0.58,0.119,1.052,0.352,1.421c0.232,0.365,0.594,0.69,1.087,0.969
						c0.49,0.279,1.102,0.522,1.836,0.732c0.734,0.213,1.594,0.441,2.575,0.688c1.198,0.286,2.286,0.611,3.255,0.968
						c0.969,0.355,1.783,0.789,2.456,1.304c0.665,0.509,1.185,1.139,1.55,1.884c0.369,0.75,0.553,1.654,0.553,2.725
						c0,1.203-0.228,2.239-0.686,3.106c-0.453,0.869-1.08,1.575-1.871,2.119c-0.787,0.547-1.707,0.947-2.752,1.205
						c-1.053,0.255-2.175,0.381-3.374,0.381c-1.808,0-3.549-0.27-5.229-0.818c-1.683-0.546-3.205-1.337-4.562-2.387l1.706-3.206
						c0.288,0.289,0.704,0.61,1.249,0.968c0.55,0.356,1.181,0.687,1.904,0.986c0.728,0.302,1.508,0.56,2.355,0.768
						c0.85,0.213,1.726,0.316,2.641,0.316c1.471,0,2.604-0.252,3.406-0.767c0.801-0.512,1.203-1.271,1.203-2.271
						c0-0.603-0.148-1.102-0.452-1.506c-0.299-0.399-0.73-0.751-1.284-1.054c-0.557-0.298-1.236-0.569-2.04-0.814
						c-0.8-0.246-1.713-0.502-2.735-0.77c-1.182-0.311-2.214-0.64-3.094-0.984c-0.877-0.345-1.607-0.761-2.188-1.254
						c-0.58-0.489-1.017-1.062-1.317-1.72c-0.302-0.657-0.453-1.451-0.453-2.389c0-1.155,0.223-2.188,0.668-3.092
						c0.447-0.897,1.052-1.656,1.823-2.267c0.769-0.612,1.672-1.073,2.723-1.389c1.045-0.311,2.182-0.467,3.403-0.467
						c1.604,0,3.088,0.255,4.444,0.767c1.357,0.514,2.549,1.15,3.577,1.904L1019.575,329.166z"/>
					<path fill="#FFFFFF" d="M1035.876,323.588h3.274l9.353,23.718h-3.941l-2.508-6.446h-9.149l-2.473,6.446h-3.974
						L1035.876,323.588z M1041.321,338.087l-3.809-10.187l-3.94,10.187H1041.321z"/>
				</g>
				<g>
					<g>
						<path fill="#FFFFFF" d="M657.521,366.542L657.521,366.542c-0.261,0-0.487-0.185-0.534-0.438
							c-2.131-10.953-12.184-25.882-12.284-26.028c-0.701-0.943-4.407-7.932-4.567-8.231c-3.295-7.456-2.271-13.169-2.221-13.412
							c3.818-14.776,17.275-15.976,19.626-16.079c0.065-0.031,0.137-0.048,0.217-0.048c0.161,0,15.821,0.185,19.862,16.14
							c0.053,0.277,1.059,5.998-2.258,13.399c-0.177,0.333-3.909,7.311-4.637,8.264c-0.094,0.131-10.498,15.05-12.672,25.996
							C658.002,366.357,657.782,366.542,657.521,366.542z M657.947,303.396c-0.057,0.017-0.118,0.031-0.179,0.031
							c-1.529,0.034-15.051,0.757-18.795,15.239c0,0.021-0.993,5.612,2.146,12.71c1.039,1.971,3.918,7.326,4.473,8.072
							c0.404,0.599,9.021,13.398,11.936,24.19c2.99-10.785,11.915-23.592,12.317-24.167c0.572-0.752,3.474-6.099,4.54-8.1
							c3.154-7.05,2.183-12.637,2.175-12.697C672.964,304.494,659.694,303.463,657.947,303.396z M657.983,328.958
							c-3.691,0-6.689-2.984-6.689-6.665c0-3.668,2.998-6.657,6.689-6.657c3.701,0,6.71,2.989,6.71,6.657
							C664.693,325.974,661.685,328.958,657.983,328.958z M657.983,316.719c-3.087,0-5.597,2.501-5.597,5.574
							c0,3.079,2.51,5.575,5.597,5.575c3.102,0,5.622-2.496,5.622-5.575C663.605,319.22,661.085,316.719,657.983,316.719z"/>
						<path fill="#FFFFFF" d="M657.515,368.026l-0.092-0.339c-0.775-0.045-1.426-0.604-1.572-1.37
							c-2.076-10.658-12.006-25.45-12.104-25.593c-0.725-0.977-4.236-7.588-4.637-8.344c-3.464-7.837-2.38-13.908-2.332-14.162
							c3.901-15.125,17.223-16.816,20.468-17.004l0.027-0.015l0.484-0.047c0.166,0,16.727,0.194,20.99,17.011
							c0.061,0.318,1.161,6.36-2.327,14.151c-0.071,0.139-3.943,7.4-4.764,8.483c-0.081,0.113-10.355,14.938-12.465,25.532
							c-0.152,0.764-0.813,1.321-1.586,1.36L657.515,368.026z M658.095,304.55l-0.326,0.034c-1.414,0.028-14.141,0.7-17.665,14.366
							c-0.02,0.129-0.835,5.381,2.079,11.965c1.77,3.336,3.958,7.33,4.342,7.85c0.359,0.522,7.414,10.992,11.021,21.077
							c3.706-10.063,11.008-20.538,11.351-21.033c0.424-0.552,2.639-4.558,4.471-7.979c2.941-6.584,2.057-11.898,2.051-11.95
							C672.149,306.002,660.228,304.685,658.095,304.55z M657.983,330.109c-4.325,0-7.854-3.503-7.854-7.816
							c0-4.305,3.528-7.809,7.854-7.809c4.341,0,7.861,3.504,7.861,7.809C665.845,326.606,662.324,330.109,657.983,330.109z
							 M657.983,317.87c-2.449,0-4.441,1.984-4.441,4.423c0,2.444,1.992,4.427,4.441,4.427c2.463,0,4.46-1.982,4.46-4.427
							C662.443,319.854,660.446,317.87,657.983,317.87z"/>
					</g>
				</g>
			</g>
			<g>
				<g>
					<path fill="#FFFFFF" d="M673.407,484.889h-7.028v18.196h-3.368v-18.196h-7.055v-2.949h17.451V484.889z"/>
					<path fill="#FFFFFF" d="M687.013,503.234c-1.508,0-2.887-0.307-4.124-0.906c-1.241-0.608-2.31-1.41-3.197-2.414
						c-0.897-1.006-1.588-2.148-2.071-3.439c-0.486-1.293-0.733-2.611-0.733-3.965c0-1.408,0.26-2.755,0.774-4.048
						c0.519-1.291,1.23-2.435,2.131-3.423c0.903-0.991,1.976-1.784,3.215-2.366c1.242-0.588,2.598-0.883,4.064-0.883
						c1.511,0,2.887,0.315,4.125,0.938c1.243,0.63,2.303,1.45,3.184,2.461c0.886,1.011,1.573,2.161,2.06,3.438
						c0.483,1.278,0.728,2.584,0.728,3.916c0,1.408-0.254,2.756-0.76,4.046c-0.508,1.295-1.217,2.428-2.131,3.412
						c-0.91,0.984-1.988,1.765-3.228,2.351C689.808,502.94,688.459,503.234,687.013,503.234z M680.282,492.51
						c0,0.998,0.16,1.956,0.479,2.891c0.313,0.931,0.769,1.756,1.355,2.469c0.583,0.717,1.291,1.291,2.126,1.715
						c0.833,0.424,1.767,0.645,2.8,0.645c1.073,0,2.02-0.228,2.844-0.67c0.824-0.453,1.527-1.039,2.102-1.776
						c0.577-0.733,1.013-1.561,1.306-2.472c0.3-0.914,0.45-1.846,0.45-2.801c0-1.011-0.162-1.975-0.478-2.898
						c-0.317-0.923-0.767-1.738-1.352-2.44c-0.59-0.71-1.294-1.271-2.115-1.702c-0.824-0.426-1.742-0.638-2.757-0.638
						c-1.07,0-2.025,0.221-2.858,0.671c-0.833,0.445-1.54,1.025-2.115,1.736c-0.575,0.717-1.017,1.538-1.324,2.461
						S680.282,491.561,680.282,492.51z"/>
					<path fill="#FFFFFF" d="M703.6,503.085v-21.146h7.502c1.707,0,3.202,0.282,4.483,0.838c1.279,0.551,2.352,1.311,3.213,2.262
						c0.867,0.947,1.518,2.071,1.953,3.35c0.435,1.278,0.653,2.645,0.653,4.092c0,1.609-0.24,3.063-0.729,4.362
						c-0.484,1.3-1.176,2.413-2.066,3.337c-0.897,0.923-1.978,1.641-3.247,2.148c-1.271,0.503-2.69,0.757-4.26,0.757H703.6z
						 M718.013,492.48c0-1.113-0.158-2.132-0.466-3.066c-0.308-0.933-0.758-1.732-1.353-2.394c-0.594-0.669-1.319-1.188-2.174-1.564
						c-0.854-0.376-1.826-0.567-2.919-0.567h-4.17v15.25h4.17c1.114,0,2.098-0.198,2.965-0.58c0.861-0.391,1.589-0.924,2.173-1.613
						c0.583-0.685,1.029-1.491,1.324-2.428C717.862,494.588,718.013,493.575,718.013,492.48z"/>
					<path fill="#FFFFFF" d="M733.372,481.939h2.92l8.34,21.146h-3.512l-2.238-5.748h-8.152l-2.209,5.748h-3.543L733.372,481.939z
						 M738.226,494.868l-3.391-9.086l-3.514,9.086H738.226z"/>
					<path fill="#FFFFFF" d="M749.308,481.939l5.834,10.604l5.897-10.604h3.663l-7.891,13.578v7.567h-3.338v-7.623l-7.829-13.522
						H749.308z"/>
				</g>
				<g>
					<path fill="#FFFFFF" d="M654.64,540.754h-0.367l-20.634,10.603l-3.105-11.644l25.934-13.215h13.696v112.999H654.64V540.754z"/>
					<path fill="#FFFFFF" d="M732.996,641.411c-23.193,0-39.08-20.688-39.45-58.067c0-38.07,17.35-58.758,41.456-58.758
						c24.839,0,39.265,21.208,39.265,57.193c0,38.423-15.156,59.632-41.09,59.632H732.996z M733.726,629.585
						c16.25,0,24.105-18.252,24.105-47.111c0-27.813-7.302-46.068-24.105-46.068c-14.613,0-24.106,17.735-24.106,46.068
						c-0.364,29.383,9.132,47.111,23.924,47.111H733.726z"/>
					<path fill="#FFFFFF" d="M813.546,520.411c14.975,0,23.92,10.78,23.92,22.603c0,13.906-11.867,23.123-24.466,23.123
						c-14.249,0-23.928-10.258-23.928-22.43c0-13.212,10.772-23.296,24.288-23.296H813.546z M813.181,528.584
						c-9.315,0-14.063,7.821-14.063,15.123c0,7.997,6.025,14.254,14.242,14.254c8.402,0,14.431-6.257,14.431-14.777
						c0-6.432-4.019-14.6-14.431-14.6H813.181z"/>
				</g>
				<g>
					<g>
						<path fill="#FFFFFF" d="M929.974,592.516c-7.143-2.896-12.193-9.892-12.193-18.052c0-10.749,8.742-19.491,19.487-19.491
							s19.48,8.742,19.48,19.491c0,0.478-0.034,0.948-0.071,1.421c2.482,0.315,4.847,0.998,7.055,1.999
							c0.146-1.125,0.248-2.26,0.248-3.42c0-14.732-11.987-26.715-26.712-26.715c-14.735,0-26.711,11.982-26.711,26.715
							c0,11.678,7.546,21.607,18.011,25.228C928.677,597.196,929.163,594.787,929.974,592.516z"/>
						<g>
							<rect x="933.651" y="531.927" fill="#FFFFFF" width="7.225" height="9.939"/>
							
								<rect x="905.733" y="544.283" transform="matrix(0.7075 0.7067 -0.7067 0.7075 653.5874 -483.3458)" fill="#FFFFFF" width="9.94" height="7.229"/>
							<rect x="894.729" y="570.85" fill="#FFFFFF" width="9.94" height="7.226"/>
							<polygon fill="#FFFFFF" points="909.741,607.092 904.632,601.983 911.664,594.956 916.774,600.063 							"/>
							
								<rect x="960.213" y="542.924" transform="matrix(0.7068 0.7074 -0.7074 0.7068 670.1278 -521.1653)" fill="#FFFFFF" width="7.226" height="9.943"/>
						</g>
						<path fill="#FFFFFF" d="M1054.084,586.32c-2.98-24.353-23.892-43.066-48.702-43.066c-19.48,0-37.148,11.651-44.923,29.304
							c-0.964-0.087-1.897-0.126-2.825-0.126c-19.021,0-34.49,15.47-34.49,34.489c0,19.018,15.469,34.49,34.49,34.49h85.372
							c15.807,0,28.656-12.855,28.656-28.652C1071.662,601.057,1064.701,590.744,1054.084,586.32z M1043.006,633.488h-85.372
							c-14.652,0-26.567-11.914-26.567-26.567c0-14.65,11.915-26.567,26.567-26.567c1.471,0,2.99,0.143,4.657,0.438l3.271,0.575
							l1.139-3.124c5.898-16.186,21.444-27.07,38.682-27.07c21.535,0,39.566,16.817,41.053,38.286l0.185,2.701l2.583,0.807
							c8.698,2.72,14.541,10.673,14.541,19.793C1063.743,624.188,1054.441,633.488,1043.006,633.488z"/>
					</g>
				</g>
			</g>
		</g>
	</g>
</g>
<g id="Vexels">
	<g>
		<g>
			<path fill="#FFFFFF" d="M855.843,1312.806l-1.107-2.397c-0.541-1.153-1.992-1.688-3.209-1.193
				c-1.314,0.452-1.904,1.812-1.361,2.922l1.246,2.699l9.84,21.349c0.094,0.084,0.178,0.248,0.225,0.33
				c0,0.04,0.051,0.04,0.051,0.04c0.045,0.084,0.135,0.164,0.227,0.251c0,0.081,0.043,0.081,0.043,0.119
				c0.131,0.085,0.225,0.128,0.314,0.209c0.045,0,0.045,0,0.045,0c0.137,0.081,0.32,0.205,0.408,0.244c0.045,0,0.045,0,0.045,0
				s0.047,0,0.047,0.045c0.09,0,0.27,0.041,0.363,0.078c0.039,0,0.088,0,0.088,0c0.139,0.041,0.316,0.041,0.457,0.041
				c0.133,0,0.271,0,0.451-0.041c0.043,0,0.086,0,0.086,0c0.135-0.037,0.227-0.078,0.363-0.078c0.049-0.045,0.049-0.045,0.09-0.045
				c0.137-0.039,0.277-0.163,0.363-0.207c0.092-0.037,0.092-0.037,0.092-0.037c0.09-0.081,0.178-0.124,0.268-0.209
				c0.049-0.038,0.049-0.038,0.094-0.119c0.045-0.087,0.178-0.167,0.221-0.251c0.047,0,0.047,0,0.047-0.04
				c0.094-0.082,0.143-0.246,0.186-0.33l0.422-0.905l-2.682-5.808L855.843,1312.806z M951.817,1312.634
				c0.768-1.031,0.592-2.429-0.537-3.132c-1.133-0.782-2.627-0.578-3.484,0.494l-5.158,6.432l3.072,3.757L951.817,1312.634z
				 M875.638,1309.215c-1.219-0.495-2.711,0.04-3.256,1.193l-6.553,14.16l2.688,5.814l8.48-18.246
				C877.493,1311.026,876.909,1309.667,875.638,1309.215z M817.239,1300.511c-1.066-1.065-2.48-1.649-3.982-1.649
				s-2.916,0.584-3.98,1.649l-18.229,18.23c-2.193,2.198-2.193,5.766,0,7.959l18.229,18.231c1.064,1.063,2.479,1.645,3.98,1.645
				s2.916-0.582,3.982-1.64l18.227-18.236c1.064-1.067,1.65-2.475,1.65-3.982c0-1.498-0.586-2.912-1.65-3.977L817.239,1300.511z
				 M832.638,1324.356l-17.746,17.742c-0.877,0.876-2.396,0.876-3.264,0l-17.746-17.742c-0.904-0.9-0.904-2.369-0.006-3.272
				l17.752-17.744c0.012-0.015,0.029-0.031,0.047-0.04v14.706c-0.723,0.245-1.389,0.632-1.945,1.187
				c-0.941,0.943-1.459,2.191-1.459,3.525c0,1.333,0.518,2.593,1.459,3.527c0.941,0.948,2.195,1.465,3.525,1.465
				c1.336,0,2.588-0.515,3.535-1.465c1.939-1.94,1.939-5.107,0-7.059c-0.557-0.554-1.225-0.936-1.949-1.181V1303.3
				c0.016,0.009,0.035,0.025,0.051,0.04l17.746,17.744c0.438,0.435,0.672,1.021,0.672,1.634
				C833.31,1323.336,833.075,1323.913,832.638,1324.356z M943.229,1323.253l-3.037-3.787l-7.641-9.47
				c-0.775-1.072-2.355-1.276-3.445-0.494c-1.129,0.703-1.355,2.101-0.59,3.132l8.602,10.619l-8.602,10.71
				c-0.766,0.984-0.539,2.43,0.59,3.129c0.41,0.286,0.91,0.45,1.449,0.45c0.77,0,1.49-0.371,1.996-0.945l7.641-9.513l8.162,10.213
				c0.471,0.589,1.217,0.894,1.91,0.894c0.516,0,1.119-0.239,1.553-0.586c1.027-0.815,1.105-2.293,0.287-3.314L943.229,1323.253z
				 M903.218,1308.77c-7.316,0-13.271,6.47-13.271,14.419c0,7.886,5.955,14.309,13.271,14.309c4.492,0,8.635-2.452,11.074-6.563
				c0.588-1.063,0.293-2.383-0.744-3.171c-0.334-0.214-0.73-0.329-1.131-0.329c-0.781,0-1.479,0.418-1.854,1.104
				c-1.535,2.704-4.35,4.377-7.346,4.377c-4.439,0-8.119-3.53-8.777-8.312h19.742c1.234,0,2.197-0.957,2.197-2.184l-0.002-0.291
				C915.821,1314.513,910.157,1308.77,903.218,1308.77z M894.761,1320.076c1.201-4.05,4.52-6.726,8.457-6.726
				c3.859,0,7.193,2.735,8.314,6.726H894.761z M1016.331,1332.843c-0.047,0-3.402,0-3.451,0c-1.277,0-2.766-0.737-2.766-2.804
				v-22.93c0-1.347-1.1-2.442-2.453-2.442c-1.301,0-2.447,1.144-2.447,2.442v22.93c0,4.534,3.012,7.462,7.666,7.462
				c0.059,0,3.424,0,3.482-0.004c1.207-0.088,2.158-1.098,2.158-2.325C1018.521,1333.938,1017.552,1332.915,1016.331,1332.843z
				 M1053.769,1325.273c-1.041-1.526-2.672-2.597-4.523-3.414c-1.807-0.786-3.936-1.321-6.244-1.729h-0.092
				c-2.439-0.414-4.475-1.078-5.652-1.817c-0.588-0.367-0.998-0.736-1.227-1.07c-0.225-0.326-0.314-0.659-0.314-1.148
				c0-0.867,0.496-1.771,1.725-2.594c1.219-0.825,3.029-1.401,5.063-1.401c2.76,0,4.975,1.234,7.285,2.633
				c1.088,0.657,2.535,0.372,3.211-0.616c0.725-0.948,0.408-2.268-0.629-2.922c-2.309-1.359-5.527-3.299-9.867-3.299
				c-2.943,0-5.697,0.783-7.824,2.183c-2.084,1.407-3.625,3.542-3.625,6.017c0,1.232,0.363,2.387,1.047,3.372
				c0.99,1.442,2.486,2.476,4.197,3.211c1.727,0.742,3.721,1.237,5.842,1.609h0.094c2.664,0.451,4.885,1.148,6.199,1.932
				c0.676,0.416,1.084,0.824,1.355,1.24c0.273,0.411,0.406,0.777,0.406,1.313c0,1.029-0.586,2.06-1.949,2.968
				c-1.354,0.903-3.389,1.523-5.648,1.523c-3.215,0.04-6.654-1.69-8.645-3.171c-0.998-0.747-2.486-0.62-3.303,0.283
				c-0.77,0.906-0.635,2.268,0.361,3.007c2.582,1.857,6.693,4.082,11.586,4.119c3.209,0,6.15-0.862,8.367-2.343
				c2.264-1.486,3.889-3.747,3.889-6.387C1054.853,1327.492,1054.45,1326.263,1053.769,1325.273z M978.769,1308.77
				c-7.318,0-13.271,6.47-13.271,14.419c0,7.886,5.953,14.309,13.271,14.309c4.498,0,8.631-2.452,11.08-6.563
				c0.584-1.063,0.291-2.383-0.744-3.171c-0.338-0.214-0.73-0.329-1.135-0.329c-0.781,0-1.475,0.418-1.855,1.104
				c-1.529,2.704-4.346,4.377-7.346,4.377c-4.439,0-8.119-3.53-8.779-8.312h19.748c1.23,0,2.197-0.957,2.197-2.184v-0.291
				C991.374,1314.513,985.714,1308.77,978.769,1308.77z M970.312,1320.076c1.199-4.05,4.521-6.726,8.457-6.726
				c3.865,0,7.195,2.735,8.318,6.726H970.312z"/>
		</g>
		<g>
			<path fill="#FFFFFF" d="M655.519,1324.629c0,0.86,0.008,1.635,0.02,2.333c0.018,0.69,0.096,1.378,0.23,2.05h-1.361l-0.502-1.786
				h-0.102c-0.334,0.586-0.82,1.073-1.459,1.46c-0.639,0.386-1.383,0.577-2.24,0.577c-1.676,0-2.924-0.524-3.738-1.586
				c-0.813-1.056-1.219-2.707-1.219-4.959c0-2.145,0.508-3.776,1.525-4.89c1.014-1.117,2.41-1.673,4.186-1.673
				c0.623,0,1.113,0.031,1.475,0.097c0.359,0.068,0.75,0.176,1.17,0.329v-5.234h2.016V1324.629z M650.435,1327.503
				c0.854,0,1.533-0.226,2.037-0.669c0.502-0.444,0.844-1.119,1.031-2.025v-6.239c-0.305-0.234-0.645-0.403-1.031-0.504
				c-0.389-0.102-0.898-0.152-1.535-0.152c-1.16,0-2.063,0.384-2.721,1.148c-0.652,0.761-0.98,1.981-0.98,3.656
				c0,0.691,0.059,1.327,0.168,1.911c0.105,0.593,0.285,1.095,0.539,1.513c0.254,0.422,0.582,0.752,0.994,0.996
				C649.349,1327.381,649.847,1327.503,650.435,1327.503z"/>
			<path fill="#FFFFFF" d="M668.577,1327.955c-0.508,0.403-1.135,0.72-1.898,0.957c-0.768,0.233-1.574,0.351-2.43,0.351
				c-0.955,0-1.787-0.154-2.492-0.467c-0.703-0.309-1.285-0.751-1.736-1.332c-0.453-0.58-0.791-1.271-1.004-2.077
				c-0.223-0.803-0.332-1.707-0.332-2.715c0-2.147,0.48-3.785,1.438-4.91c0.953-1.12,2.322-1.687,4.1-1.687
				c0.57,0,1.139,0.064,1.711,0.192c0.572,0.123,1.082,0.364,1.535,0.718c0.455,0.351,0.822,0.85,1.109,1.495
				c0.285,0.647,0.428,1.498,0.428,2.554c0,0.552-0.051,1.168-0.154,1.836h-8.074c0,0.738,0.072,1.395,0.227,1.965
				c0.148,0.573,0.385,1.052,0.703,1.445c0.32,0.395,0.732,0.699,1.244,0.908c0.514,0.21,1.139,0.314,1.875,0.314
				c0.57,0,1.141-0.104,1.713-0.305c0.57-0.198,0.998-0.437,1.281-0.702L668.577,1327.955z M664.249,1317.84
				c-0.992,0-1.785,0.257-2.381,0.78c-0.594,0.52-0.951,1.408-1.068,2.668h6.242c0-1.278-0.244-2.172-0.732-2.684
				C665.823,1318.094,665.136,1317.84,664.249,1317.84z"/>
			<path fill="#FFFFFF" d="M677.71,1325.538c0-0.504-0.152-0.898-0.451-1.182c-0.305-0.284-0.678-0.522-1.121-0.718
				c-0.445-0.193-0.932-0.378-1.457-0.555c-0.531-0.172-1.018-0.402-1.465-0.677c-0.441-0.278-0.814-0.635-1.117-1.07
				c-0.301-0.438-0.453-1.025-0.453-1.764c0-1.207,0.342-2.088,1.031-2.652c0.688-0.563,1.645-0.846,2.871-0.846
				c0.904,0,1.666,0.08,2.275,0.243c0.611,0.158,1.145,0.347,1.6,0.567l-0.48,1.656c-0.387-0.183-0.854-0.346-1.395-0.486
				c-0.549-0.145-1.129-0.216-1.752-0.216c-0.736,0-1.277,0.124-1.621,0.378c-0.346,0.252-0.516,0.688-0.516,1.308
				c0,0.434,0.15,0.775,0.455,1.019c0.301,0.244,0.672,0.463,1.115,0.656c0.445,0.191,0.932,0.38,1.463,0.566
				c0.527,0.183,1.014,0.427,1.457,0.729c0.447,0.303,0.818,0.684,1.121,1.144c0.305,0.464,0.451,1.067,0.451,1.821
				c0,0.541-0.088,1.043-0.264,1.513s-0.447,0.875-0.816,1.208c-0.371,0.336-0.826,0.601-1.371,0.792
				c-0.547,0.191-1.189,0.29-1.924,0.29c-0.961,0-1.773-0.094-2.441-0.275c-0.672-0.187-1.234-0.401-1.686-0.655l0.602-1.711
				c0.389,0.219,0.891,0.42,1.512,0.604c0.619,0.186,1.246,0.277,1.887,0.277c0.721,0,1.316-0.143,1.787-0.43
				C677.474,1326.787,677.71,1326.277,677.71,1325.538z"/>
			<path fill="#FFFFFF" d="M682.767,1312.556c0-0.385,0.129-0.718,0.391-0.997c0.262-0.277,0.594-0.413,0.994-0.413
				c0.404,0,0.746,0.136,1.031,0.413c0.287,0.279,0.426,0.612,0.426,0.997c0,0.384-0.139,0.705-0.426,0.954
				c-0.285,0.253-0.627,0.38-1.031,0.38c-0.4,0-0.732-0.127-0.994-0.38C682.896,1313.261,682.767,1312.939,682.767,1312.556z
				 M683.194,1316.379h2.014v12.58h-2.014V1316.379z"/>
			<path fill="#FFFFFF" d="M699.147,1329.538c0,1.629-0.432,2.829-1.297,3.603c-0.861,0.77-2.141,1.154-3.836,1.154
				c-1.004,0-1.816-0.063-2.43-0.188c-0.609-0.126-1.135-0.29-1.572-0.491l0.529-1.712c0.387,0.153,0.814,0.295,1.283,0.43
				c0.471,0.134,1.084,0.2,1.838,0.2c0.705,0,1.279-0.063,1.723-0.189c0.443-0.123,0.801-0.334,1.068-0.63
				c0.27-0.292,0.453-0.669,0.555-1.132c0.1-0.462,0.15-1.013,0.15-1.648v-1.207h-0.1c-0.336,0.487-0.766,0.859-1.281,1.12
				c-0.523,0.261-1.199,0.392-2.041,0.392c-1.693,0-2.941-0.53-3.736-1.587c-0.797-1.058-1.195-2.702-1.195-4.935
				c0-2.145,0.51-3.776,1.533-4.89c1.025-1.117,2.535-1.673,4.531-1.673c0.957,0,1.775,0.075,2.455,0.224
				c0.678,0.151,1.283,0.33,1.822,0.526V1329.538z M694.089,1327.478c0.855,0,1.527-0.217,2.016-0.644
				c0.486-0.429,0.832-1.095,1.031-1.999v-6.443c-0.672-0.318-1.527-0.479-2.568-0.479c-1.139,0-2.039,0.39-2.691,1.157
				c-0.654,0.771-0.982,1.982-0.982,3.624c0,0.704,0.063,1.351,0.178,1.935c0.117,0.593,0.301,1.095,0.555,1.513
				c0.25,0.422,0.576,0.749,0.982,0.984C693.011,1327.36,693.501,1327.478,694.089,1327.478z"/>
			<path fill="#FFFFFF" d="M711.101,1328.959v-7.168c0-1.31-0.189-2.297-0.566-2.956c-0.377-0.664-1.072-0.995-2.076-0.995
				c-0.891,0-1.625,0.239-2.201,0.719c-0.578,0.476-0.986,1.076-1.221,1.798v8.603h-2.012v-12.58h1.406l0.377,1.534h0.102
				c0.404-0.536,0.945-0.979,1.623-1.322c0.68-0.339,1.49-0.516,2.43-0.516c0.689,0,1.293,0.08,1.809,0.243
				c0.523,0.158,0.955,0.439,1.301,0.842c0.34,0.4,0.602,0.943,0.777,1.623c0.18,0.679,0.264,1.539,0.264,2.579v7.597H711.101z"/>
			<path fill="#FFFFFF" d="M725.972,1327.955c-0.504,0.403-1.135,0.72-1.9,0.957c-0.762,0.233-1.572,0.351-2.428,0.351
				c-0.955,0-1.787-0.154-2.49-0.467c-0.703-0.309-1.283-0.751-1.738-1.332c-0.453-0.58-0.789-1.271-1.004-2.077
				c-0.221-0.803-0.328-1.707-0.328-2.715c0-2.147,0.479-3.785,1.434-4.91c0.957-1.12,2.324-1.687,4.104-1.687
				c0.572,0,1.141,0.064,1.711,0.192c0.568,0.123,1.08,0.364,1.535,0.718c0.449,0.351,0.82,0.85,1.105,1.495
				c0.285,0.647,0.428,1.498,0.428,2.554c0,0.552-0.051,1.168-0.148,1.836h-8.08c0,0.738,0.076,1.395,0.229,1.965
				c0.148,0.573,0.383,1.052,0.703,1.445c0.318,0.395,0.73,0.699,1.244,0.908c0.512,0.21,1.137,0.314,1.875,0.314
				c0.57,0,1.143-0.104,1.713-0.305c0.568-0.198,0.996-0.437,1.281-0.702L725.972,1327.955z M721.644,1317.84
				c-0.99,0-1.781,0.257-2.379,0.78c-0.594,0.52-0.953,1.408-1.068,2.668h6.242c0-1.278-0.246-2.172-0.732-2.684
				C723.218,1318.094,722.53,1317.84,721.644,1317.84z"/>
			<path fill="#FFFFFF" d="M739.231,1324.629c0,0.86,0.008,1.635,0.027,2.333c0.018,0.69,0.092,1.378,0.227,2.05h-1.361
				l-0.502-1.786h-0.102c-0.334,0.586-0.822,1.073-1.459,1.46c-0.637,0.386-1.387,0.577-2.24,0.577
				c-1.674,0-2.922-0.524-3.736-1.586c-0.813-1.056-1.221-2.707-1.221-4.959c0-2.145,0.506-3.776,1.523-4.89
				c1.014-1.117,2.41-1.673,4.191-1.673c0.619,0,1.111,0.031,1.467,0.097c0.365,0.068,0.754,0.176,1.174,0.329v-5.234h2.012
				V1324.629z M734.151,1327.503c0.854,0,1.533-0.226,2.037-0.669c0.502-0.444,0.846-1.119,1.031-2.025v-6.239
				c-0.299-0.234-0.646-0.403-1.031-0.504c-0.385-0.102-0.896-0.152-1.537-0.152c-1.156,0-2.059,0.384-2.715,1.148
				c-0.652,0.761-0.98,1.981-0.98,3.656c0,0.691,0.051,1.327,0.164,1.911c0.105,0.593,0.289,1.095,0.537,1.513
				c0.254,0.422,0.584,0.752,0.998,0.996C733.065,1327.381,733.563,1327.503,734.151,1327.503z"/>
			<path fill="#FFFFFF" d="M749.827,1311.347h2.012v6.267h0.104c0.385-0.487,0.875-0.864,1.469-1.134
				c0.596-0.266,1.248-0.404,1.949-0.404c1.631,0,2.848,0.521,3.666,1.563c0.811,1.038,1.217,2.649,1.217,4.831
				c0,2.197-0.537,3.868-1.609,5.008s-2.582,1.708-4.529,1.708c-0.939,0-1.791-0.1-2.553-0.301
				c-0.762-0.199-1.338-0.418-1.725-0.654V1311.347z M755.011,1317.84c-0.842,0-1.521,0.233-2.039,0.702
				c-0.52,0.469-0.896,1.134-1.133,1.988v6.339c0.318,0.188,0.707,0.328,1.158,0.42c0.453,0.092,0.924,0.137,1.41,0.137
				c1.139,0,2.051-0.403,2.727-1.209c0.684-0.805,1.02-2.062,1.02-3.772c0-0.653-0.057-1.267-0.174-1.839
				c-0.117-0.571-0.301-1.055-0.555-1.459c-0.25-0.403-0.574-0.724-0.967-0.954C756.062,1317.958,755.579,1317.84,755.011,1317.84z"
				/>
			<path fill="#FFFFFF" d="M766.827,1324.532l0.703,2.415h0.127l0.555-2.438l2.451-8.13h2.012l-3.723,11.298
				c-0.287,0.822-0.564,1.62-0.844,2.392s-0.584,1.459-0.918,2.065c-0.336,0.604-0.715,1.084-1.133,1.445
				c-0.42,0.36-0.904,0.541-1.459,0.541c-0.604,0-1.098-0.087-1.484-0.25l0.352-1.736c0.219,0.084,0.426,0.123,0.629,0.123
				c0.471,0,0.922-0.246,1.359-0.74c0.434-0.494,0.797-1.347,1.08-2.558l-5.057-12.58h2.314L766.827,1324.532z"/>
		</g>
	</g>
</g>
<g id="Layer_3">
</g>
</svg>
